<svg width="22" height="22" viewBox="0 0 22 22" fill="none" xmlns="http://www.w3.org/2000/svg">
<path d="M11.1289 0.669434C5.31881 0.669434 0.607178 5.38106 0.607178 11.1912C0.607178 17.0013 5.31881 21.7129 11.1289 21.7129C16.9391 21.7129 21.6507 17.0013 21.6507 11.1912C21.6507 5.38106 16.9391 0.669434 11.1289 0.669434ZM17.1343 13.682C17.105 14.3252 17.0028 14.7643 16.8534 15.1487C16.5396 15.9603 15.8981 16.6018 15.0865 16.9157C14.7022 17.065 14.263 17.1671 13.62 17.1965C12.9757 17.2259 12.7699 17.2329 11.129 17.2329C9.4881 17.2329 9.28244 17.2259 8.63799 17.1965C7.995 17.1671 7.55574 17.065 7.17154 16.9157C6.76824 16.764 6.40316 16.5263 6.10133 16.2187C5.79404 15.9171 5.55626 15.5519 5.40454 15.1487C5.25523 14.7645 5.15296 14.3252 5.12374 13.6822C5.09404 13.0378 5.08714 12.832 5.08714 11.1912C5.08714 9.55036 5.09404 9.34453 5.12358 8.70026C5.1528 8.05709 5.25491 7.61799 5.40422 7.23364C5.55594 6.8305 5.79387 6.46525 6.10133 6.16358C6.403 5.85613 6.76824 5.61836 7.17138 5.46664C7.55574 5.31733 7.99484 5.21522 8.63799 5.18584C9.28228 5.15646 9.4881 5.14939 11.1289 5.14939C12.7698 5.14939 12.9755 5.15646 13.6198 5.186C14.263 5.21522 14.7021 5.31733 15.0865 5.46648C15.4895 5.61819 15.8548 5.85613 16.1567 6.16358C16.4639 6.46541 16.7019 6.8305 16.8534 7.23364C17.0029 7.61799 17.105 8.05709 17.1344 8.70026C17.1638 9.34453 17.1707 9.55036 17.1707 11.1912C17.1707 12.832 17.1638 13.0378 17.1343 13.682Z" fill="black" fill-opacity="0.7"/>
</svg>
