<svg width="61" height="63" viewBox="0 0 61 63" fill="none" xmlns="http://www.w3.org/2000/svg">
<path d="M0.212262 16.4057C0.19 16.2933 0.18999 16.1794 0.185226 16.0654C0.186811 15.9577 0.196357 15.8549 0.207489 15.7503C0.228167 15.5683 0.162964 15.3768 0.242477 15.201C0.280644 15.1218 0.261561 15.0316 0.310859 14.9478C0.406288 14.7941 0.484216 14.6343 0.406287 14.4491C0.364931 14.3477 0.355394 14.2195 0.525562 14.1277C0.721171 14.0327 0.449228 13.7588 0.74185 13.686C0.754576 13.6829 0.660742 13.6385 0.663921 13.6306C0.708456 13.4406 0.708446 13.2285 0.84522 13.0766C0.96609 12.9373 0.754575 12.6349 1.14898 12.6269C1.16329 12.6269 1.08536 12.5778 1.08378 12.5651C1.0472 12.3388 1.38435 12.3072 1.25553 12.0285C1.25235 12.0222 1.29212 12.0396 1.30325 12.0396C1.4925 12.0459 1.45274 11.9256 1.44161 11.8164C1.43207 11.7088 1.45115 11.6154 1.74059 11.6945C1.7565 11.6992 1.69607 11.647 1.67857 11.6264C1.52431 11.4254 1.64836 11.3905 1.76445 11.3558C1.87895 11.3193 1.98233 11.2797 1.79786 11.0471C1.78671 11.0327 1.85351 11.0628 1.87577 11.0676C2.30359 11.1515 2.23202 10.8744 2.25429 10.6845C2.27973 10.4755 2.81885 10.6781 2.53101 10.2016C2.43558 10.037 2.7123 10.1193 2.74252 10.0528C2.82045 9.88027 2.87134 9.66813 3.10831 9.64122C3.226 9.62697 3.22281 9.50349 3.25462 9.40534C3.28643 9.31035 3.34845 9.24228 3.57746 9.35152C3.59177 9.35785 3.53293 9.28186 3.52975 9.26603C3.49318 8.96525 3.98141 9.22171 3.82397 8.78003C3.81761 8.75944 3.93688 8.86867 3.94642 8.86076C4.09592 8.75311 4.23587 8.63437 4.38218 8.5204C4.38854 8.51565 4.33129 8.42541 4.34242 8.42858C4.64459 8.51881 4.58575 8.12304 4.83226 8.14204C4.95153 8.1547 4.99288 8.05338 5.05013 7.97107C5.1058 7.88875 5.18213 7.82858 5.35549 7.94257C5.36185 7.94573 5.34754 7.91249 5.34117 7.89349C5.23621 7.55946 5.45568 7.77634 5.5177 7.73518C5.67833 7.63862 5.86758 7.60379 6.03616 7.51988C6.21749 7.42015 6.42102 7.35208 6.62455 7.29826C6.71687 7.27609 6.80117 7.23335 6.89014 7.19377C6.94265 7.17161 6.9983 7.15577 7.05396 7.14627C7.07945 7.1257 7.10809 7.10512 7.1478 7.08612C7.16375 7.0782 7.0111 7.04971 7.0111 7.03704C7.01577 6.76317 6.94112 6.46238 7.08737 6.20909C7.16212 6.09352 7.09692 5.9463 7.08575 5.80857C7.07783 5.67242 7.11439 5.54102 7.41187 5.50303C7.43411 5.49987 7.30847 5.44446 7.3037 5.42863C7.25119 5.2719 7.35144 5.16108 7.43086 5.05027C7.51038 4.93628 7.56604 4.82072 7.45635 4.62442C7.45158 4.61651 7.51363 4.63708 7.52948 4.6355C7.81263 4.62758 7.73788 4.4582 7.70924 4.29831C7.69492 4.21915 7.69015 4.14316 7.7458 4.10042C7.80461 4.05925 7.92069 4.05134 8.14017 4.10833C8.16404 4.11466 8.07019 4.04026 8.0448 4.01018C7.80623 3.72206 7.99392 3.66507 8.15774 3.61441C8.31994 3.55742 8.48051 3.51942 8.21492 3.16165C8.19908 3.13948 8.29769 3.18856 8.33101 3.19806C8.64758 3.27246 8.77473 3.21388 8.83364 3.09675C8.89722 2.98593 8.89407 2.81654 8.91946 2.6788C8.9481 2.53 9.1564 2.54425 9.30915 2.51575C9.4682 2.49042 9.56519 2.41443 9.40452 2.02658C9.30113 1.76062 9.68443 1.94742 9.74486 1.86352C9.82438 1.75112 9.89751 1.62289 9.99612 1.52632C10.0947 1.43133 10.2141 1.3601 10.3906 1.39018C10.564 1.41708 10.6037 1.24136 10.6832 1.11313C10.7229 1.04981 10.7706 0.999151 10.8439 0.995984C10.917 0.994401 11.0188 1.04506 11.1571 1.17645C11.173 1.19229 11.1221 1.05773 11.1253 1.03556C11.1619 0.818679 11.3305 0.851924 11.4752 0.858256C11.6199 0.858256 11.7487 0.847174 11.7551 0.498896C11.7567 0.467234 11.8649 0.682534 11.8839 0.677785C12.0127 0.641374 12.1384 0.601796 12.264 0.560636C12.3913 0.522642 12.5201 0.494147 12.6473 0.457736C12.6584 0.454569 12.633 0.296261 12.6473 0.307343C12.827 0.464068 12.9415 0.391246 13.0624 0.308926C13.1833 0.232937 13.3073 0.136369 13.4568 0.234521C13.6015 0.332672 13.7144 0.210774 13.8401 0.145867C13.9641 0.082544 14.1009 0.0587976 14.2392 0.326339C14.244 0.335838 14.2487 0.280429 14.2535 0.251934C14.3458 -0.264152 14.473 0.174363 14.5764 0.163282C14.8356 0.155366 15.0885 0.258267 15.3461 0.253517C15.6292 0.275681 15.9139 0.31684 16.1875 0.395995C16.4244 0.476732 16.7075 0.407077 16.9253 0.566969C17.0223 0.642957 17.1528 0.636624 17.2513 0.730027C17.342 0.818679 17.4422 0.889918 17.5456 0.946909C17.6506 1.00232 17.7667 1.02607 17.9082 0.995984C18.0624 0.964323 18.2549 0.973822 18.3122 1.25878C18.3456 1.4155 18.476 1.41392 18.6031 1.43291C18.7304 1.45033 18.856 1.48515 18.8386 1.70995C18.8369 1.72895 18.9372 1.6118 18.9482 1.61813C19.1853 1.75745 19.4954 1.8271 19.6322 2.09465C19.6974 2.21338 19.8612 2.22763 19.99 2.28461C20.1188 2.34002 20.1968 2.454 20.0886 2.72472C20.0807 2.7453 20.192 2.66455 20.2078 2.66614C20.3733 2.69622 20.4242 2.83394 20.483 2.95585C20.5371 3.08566 20.6023 3.19648 20.8361 3.19172C20.8456 3.19172 20.7979 3.23447 20.7899 3.24872C20.658 3.49726 20.8536 3.50834 20.9998 3.56692C21.1462 3.62233 21.2607 3.71415 20.9506 4.03552C20.9331 4.05292 21.0444 4.00701 21.0841 4.00068C21.4579 3.9342 21.4197 4.12099 21.3736 4.29514C21.3322 4.46928 21.3004 4.62125 21.7442 4.56743C21.7712 4.56426 21.6805 4.62442 21.6567 4.64975C21.4435 4.88405 21.4213 5.0281 21.4896 5.13892C21.5565 5.24974 21.7107 5.3289 21.8221 5.41754C21.9477 5.51412 21.8141 5.69142 21.7633 5.83865C21.7107 5.98904 21.733 6.10777 22.1545 6.16159C22.4471 6.20117 22.0686 6.44656 22.1194 6.53837C22.1815 6.66185 22.2594 6.78849 22.2992 6.92148C22.3405 7.05446 22.3183 7.19377 22.2149 7.32992C22.1084 7.46606 22.2451 7.58795 22.3198 7.71935C22.358 7.78901 22.3755 7.84126 22.3422 7.89665C22.3071 7.95206 22.2197 8.00747 22.0399 8.0613C22.0193 8.06763 22.1624 8.08188 22.1815 8.09296C22.5409 8.3146 21.768 8.54573 22.4184 8.76577C22.4487 8.77527 22.207 8.79743 22.2054 8.81326C22.1846 9.03965 22.1815 9.26762 22.1846 9.49399C22.1846 9.50508 22.3453 9.51616 22.331 9.52565C21.9398 9.75362 22.4836 9.98475 22.2451 10.2127C22.0129 10.4343 22.63 10.6592 22.0797 10.8777C22.0702 10.8808 22.1258 10.8887 22.1545 10.8934C22.6682 10.9868 22.2213 11.0803 22.2292 11.172C22.2483 11.3937 22.1576 11.6154 22.1767 11.8354C22.199 12.0808 22.1894 12.3245 22.1703 12.5699C22.1528 12.7868 22.2801 13.0021 22.1958 13.2206C22.1576 13.3203 22.207 13.4248 22.1528 13.5324C22.0527 13.7335 21.9923 13.9488 22.1703 14.1435C22.2817 14.2654 22.3787 14.343 22.2181 14.4063C22.1894 14.438 22.1528 14.476 22.1242 14.5234C22.0066 14.7166 22.3993 14.9224 22.0241 15.1235C22.0081 15.1314 22.1624 15.144 22.164 15.1552C22.1974 15.3942 22.3135 15.6332 22.2165 15.8722C22.1258 16.0939 22.6173 16.3171 22.0845 16.5372C22.0638 16.545 22.2022 16.5593 22.2118 16.5704C22.4184 16.7983 21.9827 17.0295 22.3613 17.2559C22.3692 17.2606 22.304 17.267 22.2897 17.2717C21.7871 17.4838 22.8542 17.7102 21.9875 17.9208C21.9636 17.9271 22.0829 17.9414 22.1194 17.954C22.8287 18.1772 21.5963 18.4162 22.4455 18.6395C22.4709 18.6458 22.3628 18.6616 22.331 18.6727C21.7362 18.8896 22.059 19.1303 22.207 19.3345C22.3692 19.5561 21.539 19.7809 22.331 20.0215C22.5997 20.1023 22.1974 20.2431 22.2307 20.3318C22.3167 20.5597 22.463 20.7941 22.2371 21.0173C22.0114 21.2405 22.7572 21.4668 22.0399 21.6838C22.0193 21.6901 22.1624 21.7043 22.1815 21.7154C22.5409 21.937 21.768 22.1667 22.4184 22.3883C22.4487 22.3977 22.207 22.4199 22.2054 22.4357C22.1846 22.6621 22.1815 22.89 22.1846 23.1164C22.1846 23.1275 22.3453 23.1386 22.331 23.1481C21.9398 23.3761 22.4836 23.6072 22.2451 23.8351C22.0129 24.0569 22.63 24.2816 22.0797 24.5001C22.0702 24.5032 22.1258 24.5112 22.1545 24.5159C22.6682 24.6093 22.2213 24.7027 22.2292 24.7946C22.2483 25.0162 22.1576 25.2378 22.1767 25.4578C22.199 25.7032 22.1894 25.9471 22.1703 26.1924C22.1528 26.4093 22.2801 26.6246 22.1958 26.8431C22.1576 26.9428 22.207 27.0472 22.1528 27.1549C22.0527 27.3559 21.9923 27.5712 22.1703 27.7659C22.2689 27.8752 22.3326 28.0161 22.1242 28.1823C21.8889 28.3676 22.3993 28.5813 22.0241 28.7824C22.0081 28.7902 22.1624 28.8029 22.164 28.814C22.1974 29.0531 22.3135 29.2921 22.2165 29.5312C22.1258 29.7528 22.6173 29.976 22.0845 30.196C22.0638 30.2039 22.2022 30.2166 22.2118 30.2292C22.4184 30.4573 21.9827 30.6883 22.3613 30.9147C22.3692 30.9195 22.304 30.9258 22.2897 30.9306C21.7871 31.1427 22.8542 31.3691 21.9875 31.5797C21.9636 31.586 22.0829 31.6002 22.1194 31.6129C22.8287 31.8361 21.5963 32.0751 22.4455 32.2984C22.4709 32.3047 22.3628 32.3205 22.331 32.3316C21.7362 32.5484 22.059 32.7891 22.207 32.9933C22.3692 33.2149 21.539 33.4398 22.331 33.6804C22.5997 33.7611 22.1974 33.902 22.2307 33.9906C22.3167 34.2187 22.463 34.453 22.2371 34.6761C22.0114 34.8994 22.7572 35.1258 22.0399 35.3426C22.0193 35.349 22.1624 35.3632 22.1815 35.3743C22.5409 35.5959 21.768 35.8271 22.4184 36.0471C22.4487 36.0566 22.207 36.0788 22.2054 36.0946C22.1846 36.321 22.1815 36.5489 22.1846 36.7753C22.1846 36.7864 22.3453 36.7975 22.331 36.8069C21.9398 37.035 22.4836 37.2661 22.2451 37.494C22.0129 37.7157 22.63 37.9404 22.0797 38.1589C22.0702 38.1622 22.1258 38.17 22.1545 38.1748C22.6682 38.2681 22.2213 38.3616 22.2292 38.4534C22.2451 38.6259 22.1927 38.7969 22.1783 38.9695C22.2817 38.8855 22.3898 38.8064 22.498 38.7288C22.6316 38.637 22.762 38.5405 22.8733 38.4264C22.9846 38.3141 23.08 38.1827 23.1485 38.0085C23.1532 37.9943 23.2073 38.0354 23.228 38.0371C23.6176 38.0544 23.7798 37.7647 23.9977 37.5099C24.2108 37.2582 24.4907 37.0397 24.9646 37.2898C24.9901 37.304 24.9773 37.1774 24.9932 37.13C25.1459 36.6661 25.5626 36.6423 25.9427 36.6534C26.132 36.6582 26.3307 36.6676 26.4929 36.6218C26.644 36.579 26.7824 36.4714 26.908 36.2386C26.924 36.2102 26.9812 36.3098 27.0194 36.3368C27.3692 36.5853 27.6921 36.6186 28.0149 36.579C28.3378 36.5395 28.6654 36.4286 28.9691 36.3748C29.3032 36.3178 29.6053 36.5236 29.8964 36.6598C30.1921 36.7959 30.4911 36.8608 30.8823 36.5395C31.1575 36.321 31.4517 36.7975 31.6887 36.8244C32.3073 36.8909 32.9642 36.9289 33.4651 37.3278C33.7148 37.5273 34.0392 37.5003 34.3446 37.5352C34.6229 37.5605 34.8534 37.6271 35.0077 38.0418C35.0173 38.0671 35.0872 37.9389 35.119 37.9262C35.4197 37.8249 35.6471 37.9832 35.8952 38.102C36.1385 38.2207 36.4072 38.2919 36.6809 37.9943C36.7046 37.9674 36.727 38.2112 36.7619 38.2159C36.9639 38.2428 37.1627 38.2539 37.3313 38.2476C37.3265 38.2445 37.3201 38.2413 37.3169 38.2381C37.3233 38.2428 37.3281 38.2445 37.3344 38.2476C37.3694 38.246 37.4044 38.246 37.4347 38.2428C37.4633 38.2191 37.4872 38.1954 37.4999 38.1542C37.5142 38.1114 37.5221 38.0703 37.5221 38.0149C37.5237 37.9658 37.5189 37.9104 37.5109 37.8518C37.4824 37.6239 37.4139 37.3769 37.53 37.1173C37.643 36.8608 37.5348 36.5964 37.4569 36.3353C37.379 36.0709 37.336 35.8065 37.5794 35.5041C37.5873 35.493 37.53 35.4819 37.5015 35.4725C36.9639 35.3014 37.379 35.0181 37.3408 34.787C37.2486 34.2345 37.2565 33.6629 37.161 33.0867C37.107 32.7685 37.0688 32.4345 37.045 32.0925C37.0243 31.7585 37.0148 31.4308 37.0148 31.1063C37.0164 30.5333 36.8828 29.9681 36.9702 29.3981C37.01 29.1369 36.9623 28.8678 37.0212 28.5876C37.1277 28.0636 37.204 27.5096 37.0418 26.9998C36.94 26.6815 36.851 26.4742 37.0179 26.3159C37.0497 26.2335 37.0912 26.1355 37.1245 26.015C37.142 25.9534 37.1516 25.8901 37.1547 25.8267C37.1564 25.795 37.1579 25.7633 37.1579 25.7301L37.1564 25.6827L37.1531 25.6541C37.1421 25.5212 37.1197 25.385 37.1039 25.2489C37.0864 25.1143 37.0864 24.9719 37.1166 24.8309C37.1468 24.69 37.1992 24.5523 37.309 24.4225C37.3281 24.4003 37.1786 24.3497 37.1818 24.318C37.2216 23.65 37.247 22.9502 37.5348 22.3281C37.5969 22.1824 37.635 22.032 37.6621 21.8753C37.6891 21.7185 37.705 21.5556 37.7447 21.402C37.7829 21.2469 37.829 21.0948 37.9229 20.9618C38.0151 20.8304 38.144 20.7149 38.3284 20.6326C38.3554 20.6199 38.2489 20.5281 38.2553 20.4933C38.2823 20.3271 38.3459 20.1767 38.427 20.0342C38.5113 19.8949 38.6147 19.7667 38.7101 19.6353C38.9105 19.3757 39.0918 19.1144 39.1284 18.7439C39.1299 18.7297 39.192 18.7535 39.2127 18.7472C39.3081 18.7218 39.3828 18.6838 39.4433 18.6332C39.5068 18.5856 39.5562 18.5271 39.5975 18.4622C39.6818 18.3339 39.7263 18.1709 39.7931 18.0252C39.8583 17.878 39.9331 17.734 40.0587 17.639C40.1875 17.5471 40.3641 17.5012 40.6185 17.5471C40.6472 17.5519 40.5915 17.4379 40.5883 17.3888C40.5756 17.1561 40.6567 17.0026 40.7776 16.8917C40.8984 16.7793 41.0686 16.7208 41.2276 16.6559C41.3867 16.5894 41.5489 16.5324 41.6666 16.4216C41.7255 16.3662 41.7731 16.2981 41.8081 16.2095C41.8431 16.1239 41.8654 16.0179 41.8686 15.8865C41.8702 15.8549 41.9672 15.9165 42.0133 15.9245C42.2249 15.9545 42.4045 15.9419 42.5667 15.9023C42.7274 15.8612 42.8626 15.782 42.9945 15.6949C43.125 15.6063 43.2411 15.4971 43.3555 15.3862C43.4716 15.2801 43.5846 15.1694 43.6959 15.0712C43.9456 14.8638 44.305 14.8797 44.6342 14.8496C44.798 14.8321 44.9555 14.7958 45.0986 14.7134C45.2418 14.6295 45.3641 14.4775 45.4739 14.2464C45.5487 14.0865 45.714 14.0739 45.8842 14.0913C46.0576 14.1134 46.2373 14.1673 46.355 14.123C46.9641 13.9029 47.6337 13.6654 48.2841 13.8554C48.6053 13.9599 48.917 13.8158 49.2399 13.7619C49.5596 13.6955 49.8871 13.7208 50.1543 14.1008C50.1703 14.1245 50.2227 13.9868 50.2577 13.9726C50.4231 13.9029 50.5854 13.9045 50.7428 13.9361C50.8986 13.9757 51.0497 14.0453 51.2008 14.1055C51.3519 14.1625 51.4997 14.229 51.6604 14.2369C51.7399 14.2433 51.8226 14.2354 51.9101 14.2132C51.996 14.1942 52.0882 14.1577 52.1852 14.1008C52.2218 14.0802 52.2138 14.3271 52.2568 14.3414C52.8675 14.5377 53.4686 14.7578 54.0507 15.0237C54.0778 15.0364 54.1779 14.905 54.1939 14.9288C54.2988 15.0886 54.4244 15.1947 54.566 15.2738C54.7075 15.353 54.857 15.4148 55.0129 15.467C55.1703 15.5192 55.3246 15.5778 55.4693 15.6538C55.614 15.7298 55.7476 15.8248 55.8447 15.9673C56.0403 16.2348 56.3441 16.3456 56.6303 16.4944C56.9086 16.6511 57.171 16.8459 57.2076 17.2591C57.2092 17.2733 57.2617 17.2464 57.2903 17.2353C57.5655 17.1371 57.6751 17.2211 57.734 17.3508C57.7944 17.479 57.8087 17.6484 57.901 17.7387C58.3446 18.1883 58.6627 18.7393 59.0254 19.2489C59.4277 19.8157 59.7537 20.4394 60.0002 21.0948C60.2134 21.6696 60.5203 22.2315 60.5696 22.8647C60.5776 23.0103 60.6078 23.1529 60.6348 23.2985C60.6619 23.4441 60.6746 23.5961 60.6698 23.7513C60.638 24.337 60.5998 24.9323 60.7382 25.4943C60.7589 25.5734 60.7764 25.6589 60.7891 25.7491C60.7986 25.8362 60.8002 25.9248 60.7938 26.0183C60.7795 26.2051 60.7207 26.4077 60.5903 26.6167C60.4439 26.8494 60.4774 27.1201 60.4869 27.3971C60.4981 27.6742 60.4821 27.9543 60.25 28.1823C60.2309 28.2013 60.3756 28.263 60.3724 28.2916C60.2881 28.9217 60.2627 29.5692 60.0226 30.1565C59.8015 30.6994 60.1259 31.3881 59.4627 31.8061C59.4373 31.8218 59.5614 31.8899 59.5645 31.9216C59.6075 32.5484 59.0269 33.0092 59.229 33.6773C59.2321 33.6899 59.1669 33.6867 59.1494 33.6978C58.5149 34.0873 59.3737 34.9453 58.3892 35.2239C58.3622 35.2318 58.4656 35.3031 58.4926 35.3411C58.6214 35.5295 58.6341 35.6861 58.5896 35.8271C58.5435 35.9711 58.4322 36.1168 58.3304 36.2513C58.2223 36.389 58.1189 36.5236 58.0759 36.6803C58.0267 36.837 58.0489 37.016 58.1745 37.2518C58.1905 37.2804 58.0728 37.2772 58.0282 37.2962C57.9137 37.3437 57.8182 37.399 57.7324 37.4592C57.8199 37.5511 57.9376 37.6507 57.5447 37.6144C57.5383 37.6223 57.532 37.6286 57.5256 37.6365C57.5447 37.6428 57.5622 37.6507 57.5734 37.6555C58.227 37.9531 57.0009 37.7758 57.7929 38.1067C57.8167 38.1162 57.7102 38.0987 57.6768 38.0956C57.0709 38.0655 57.3491 38.2761 57.4652 38.4233C57.5908 38.5832 56.7559 38.5009 57.4907 38.8254C57.7403 38.9346 57.33 38.9125 57.3508 38.9679C57.4032 39.1119 57.513 39.275 57.2632 39.3415C57.0136 39.408 57.7069 39.7088 56.9818 39.6549C56.9595 39.6534 57.0979 39.6946 57.1137 39.7057C57.4334 39.9114 56.651 39.8529 57.2537 40.1267C57.2823 40.1393 57.0437 40.0935 57.0406 40.1014C56.9913 40.2201 56.9579 40.3421 56.9309 40.467C56.9293 40.4734 57.0835 40.5177 57.0676 40.5177C56.6573 40.5494 57.1551 40.8027 56.8927 40.8707C56.6382 40.9373 57.2092 41.2016 56.6446 41.1938C56.635 41.1938 56.6876 41.2095 56.7146 41.2191C57.2028 41.3885 56.7544 41.3362 56.7511 41.3868C56.7416 41.5119 56.6255 41.6117 56.616 41.7352C56.6064 41.8729 56.5667 42.0042 56.5173 42.1325C56.4729 42.2465 56.5698 42.3921 56.4602 42.4919C56.4108 42.5378 56.4442 42.6043 56.379 42.6517C56.255 42.7388 56.1707 42.8433 56.3202 42.989C56.4045 43.0696 56.449 43.1599 56.2247 43.2058C55.9735 43.2565 56.4458 43.4813 56.0546 43.5114C56.0387 43.513 56.1865 43.5525 56.1865 43.5588C56.1898 43.6966 56.2741 43.8518 56.1516 43.961C56.037 44.0623 56.4888 44.2871 55.9432 44.295C55.9226 44.295 56.0561 44.3314 56.0642 44.3393C56.2407 44.5055 55.7874 44.5419 56.1325 44.743C56.1389 44.7462 56.0752 44.7367 56.0609 44.7367C55.5441 44.7509 56.5634 45.0897 55.6919 45.0296C55.6681 45.0279 55.7826 45.0596 55.8176 45.0739C56.4872 45.3366 55.2515 45.2227 56.0594 45.5124C56.0832 45.5219 55.9766 45.5076 55.9432 45.5076C55.3341 45.5092 55.6252 45.704 55.7492 45.8433C55.8844 45.9952 55.0463 45.9604 55.7986 46.2406C56.0546 46.3356 55.6443 46.3356 55.6665 46.391C55.727 46.5303 55.8462 46.6854 55.6013 46.7662C55.3549 46.8469 56.0657 47.1034 55.3373 47.0939C55.315 47.0939 55.455 47.1272 55.4725 47.1366C55.8065 47.3202 55.0224 47.3108 55.6427 47.5451C55.6713 47.5562 55.4311 47.5261 55.428 47.534C55.3866 47.6543 55.3611 47.7778 55.3437 47.9012C55.3421 47.9076 55.4996 47.9409 55.4853 47.9424C55.0781 48.0026 55.5918 48.2163 55.3358 48.3018C55.0845 48.3857 55.6728 48.6042 55.1131 48.639C55.1036 48.639 55.1576 48.6517 55.1846 48.6596C55.6856 48.7893 55.2355 48.772 55.2355 48.8226C55.2371 48.9461 55.129 49.0522 55.1306 49.1757C55.1321 49.3118 55.1051 49.4432 55.0654 49.5746C55.032 49.6901 55.1369 49.8247 55.0432 49.9308C54.9986 49.9798 55.0415 50.0416 54.9827 50.0938C54.8713 50.1904 54.7966 50.3012 54.962 50.4263C55.0654 50.5039 55.156 50.5561 54.9938 50.5736C54.9636 50.5878 54.9238 50.6052 54.8937 50.6273C54.7648 50.7207 55.1433 50.8696 54.7569 50.9424C54.7409 50.9456 54.8937 50.9661 54.8937 50.9725C54.9111 51.1054 55.0241 51.24 54.9174 51.3587C54.8204 51.4711 55.3023 51.6183 54.7632 51.7038C54.7425 51.7071 54.8793 51.7213 54.8904 51.7292C55.0893 51.859 54.6455 51.9634 55.016 52.0981C55.0241 52.1012 54.9589 52.1012 54.9445 52.1044C54.6917 52.1503 54.8348 52.212 54.9302 52.269C55.0256 52.326 55.0765 52.3782 54.6439 52.4321C54.62 52.4352 54.7394 52.4431 54.7759 52.4494C55.1306 52.5064 55.0002 52.5619 54.8873 52.6236C54.7743 52.6838 54.679 52.7487 55.1036 52.7898C55.129 52.793 55.0208 52.8041 54.989 52.8104C54.6917 52.8753 54.6248 52.9402 54.6487 52.9972C54.6773 53.0574 54.7998 53.1096 54.8793 53.1603C55.0495 53.2663 54.232 53.45 55.032 53.5196C55.304 53.5418 54.908 53.6479 54.9445 53.6938C55.0399 53.8093 55.1926 53.9186 54.9811 54.061C54.7695 54.2067 55.5266 54.2463 54.8268 54.4409C54.8061 54.4473 54.9493 54.4378 54.9684 54.4426C55.3405 54.5201 54.5866 54.7354 55.2467 54.7766C55.2769 54.7782 55.0384 54.8194 55.0384 54.8288C55.032 54.9539 55.0432 55.0774 55.0654 55.1993C55.0669 55.2056 55.226 55.1898 55.2117 55.1961C54.8427 55.3734 55.3993 55.4209 55.1815 55.5777C54.9699 55.7328 55.5982 55.7565 55.0717 55.9623C55.0621 55.9655 55.1179 55.9608 55.1464 55.9591C55.6618 55.9275 55.2276 56.0494 55.2435 56.0969C55.2849 56.2125 55.2164 56.347 55.2578 56.4626C55.304 56.5909 55.3183 56.7238 55.3231 56.8583C55.3277 56.9787 55.4709 57.0705 55.4153 57.2035C55.3883 57.2652 55.4487 57.3111 55.4089 57.3792C55.3341 57.5074 55.2976 57.6357 55.4948 57.7037C55.6045 57.7417 55.6824 57.8034 55.4963 57.9364C55.288 58.0868 55.8097 58.0916 55.4693 58.28C55.455 58.2879 55.6061 58.261 55.6093 58.2673C55.6713 58.3876 55.8144 58.4905 55.7508 58.6393C55.6919 58.7786 56.1961 58.7834 55.7063 59.0256C55.6872 59.0351 55.8223 59.0098 55.8351 59.0129C56.0642 59.0858 55.6745 59.3122 56.0737 59.3422C56.0816 59.3422 56.0196 59.3612 56.0069 59.3675C55.5488 59.605 56.6128 59.4609 55.8032 59.7886C55.781 59.7982 55.8987 59.776 55.9353 59.7728C56.651 59.7111 55.4916 60.1543 56.3456 60.053C56.3711 60.0499 56.2693 60.0863 56.2391 60.1005C55.6967 60.3697 56.0451 60.4156 56.2168 60.4837C56.4045 60.5564 55.6395 60.9031 56.4378 60.8129C56.7082 60.7828 56.3441 60.9664 56.3886 61.0044C56.5063 61.1011 56.6844 61.1817 56.503 61.3638C56.3217 61.5475 57.0708 61.4493 56.4203 61.7722C56.4012 61.7818 56.5412 61.7469 56.5603 61.7485C56.9404 61.758 56.2407 62.1095 56.899 62.0303C56.9293 62.0272 56.7034 62.1095 56.7034 62.1189C56.7225 62.244 56.7559 62.3643 56.7972 62.4815C56.7989 62.4863 56.9531 62.4435 56.942 62.453C56.6097 62.6936 57.1662 62.6429 56.9802 62.8361C56.7989 63.0261 57.4207 62.9437 56.942 63.235C56.934 63.2398 56.9865 63.2256 57.0152 63.2192C57.5177 63.0989 57.1122 63.2936 57.1361 63.338C57.1949 63.4456 57.1487 63.5897 57.2076 63.6958C57.2744 63.8113 57.3126 63.9379 57.3412 64.0693C57.3651 64.1864 57.5273 64.2403 57.4922 64.378C57.4764 64.4414 57.5416 64.4746 57.513 64.5363C57.5082 64.5458 57.505 64.5553 57.5018 64.5664C57.5018 64.5632 57.5018 64.5617 57.5034 64.5585L56.0021 65.8788C55.9735 65.7949 55.9257 65.7268 55.8686 65.6587C55.8399 65.6255 55.8096 65.5906 55.7795 65.5543C55.7588 65.5369 55.7444 65.5305 55.7286 65.5163C55.6665 65.4672 55.6315 65.4007 55.7779 65.2662C55.7906 65.2551 55.6458 65.3073 55.6411 65.3009C55.552 65.1743 55.3929 65.0872 55.428 64.9163C55.4645 64.7627 54.9604 64.8118 55.4137 64.5062C55.4311 64.4951 55.2992 64.5348 55.2864 64.5331C55.0432 64.4778 55.4105 64.2054 55.0081 64.2086C55.0002 64.2086 55.059 64.1833 55.0717 64.1754C55.5059 63.8936 54.4531 64.12 55.2307 63.7227C55.2531 63.7115 55.1369 63.7416 55.1003 63.748C54.3879 63.8524 55.5106 63.33 54.6662 63.4773C54.6408 63.482 54.7409 63.4393 54.7695 63.4234C55.2944 63.1179 54.9429 63.0894 54.7664 63.0229C54.5739 62.9501 55.3262 62.578 54.5295 62.6841C54.2575 62.7189 54.6185 62.5226 54.5723 62.4846C54.4499 62.3849 54.2718 62.2979 54.4515 62.1095C54.6312 61.9227 53.8789 62.0082 54.531 61.6868C54.5501 61.6773 54.4101 61.7105 54.391 61.7089C54.0093 61.6852 54.7139 61.3465 54.0539 61.4034C54.0237 61.4066 54.2527 61.329 54.2511 61.3195C54.2352 61.1881 54.2034 61.0614 54.1652 60.938C54.1636 60.9317 54.0078 60.9681 54.0205 60.9586C54.3625 60.7291 53.8027 60.7433 53.9983 60.5549C54.1906 60.3728 53.5625 60.4029 54.0635 60.1433C54.0714 60.1385 54.0174 60.148 53.9887 60.1528C53.4782 60.2287 53.898 60.0641 53.8758 60.0167C53.8249 59.8979 53.8822 59.7523 53.8312 59.6351C53.7756 59.5037 53.7533 59.3644 53.7406 59.2235C53.7294 59.0985 53.5768 59.0066 53.6293 58.8657C53.6532 58.8009 53.5927 58.7549 53.6293 58.6821C53.6993 58.5475 53.7342 58.4145 53.5371 58.3418C53.4273 58.3021 53.3478 58.2341 53.5338 58.0979C53.7422 57.946 53.2174 57.9285 53.5608 57.7401C53.5752 57.7322 53.4225 57.756 53.4209 57.7497C53.3605 57.6214 53.2174 57.509 53.289 57.3539C53.3542 57.2129 52.8484 57.1734 53.3509 56.9533C53.37 56.9454 53.2333 56.9613 53.2221 56.9565C52.9947 56.8631 53.4003 56.6573 53.0027 56.5924C52.9947 56.5909 53.0583 56.5765 53.071 56.5719C53.5434 56.3692 52.4731 56.4103 53.3096 56.1523C53.3335 56.146 53.2142 56.1555 53.176 56.1539C52.4555 56.1333 53.6532 55.8119 52.7944 55.8088C52.7689 55.8088 52.8739 55.7851 52.9057 55.7724C53.475 55.5618 53.1347 55.4731 52.9709 55.375C52.7927 55.2674 53.6038 55.0347 52.8007 54.9935C52.5271 54.9777 52.9184 54.8494 52.8802 54.802C52.78 54.68 52.6178 54.5581 52.8278 54.4062C53.0361 54.2558 52.2823 54.194 52.9868 54.0009C53.0074 53.9946 52.8643 53.9993 52.8452 53.9946C52.4763 53.8948 53.2381 53.6986 52.578 53.6194C52.5479 53.6162 52.788 53.5861 52.788 53.5766C52.7975 53.4421 52.7911 53.3107 52.7784 53.1777C52.7784 53.1714 52.6178 53.1729 52.6322 53.1681C53.0154 53.0131 52.4746 52.8911 52.7117 52.7408C52.9422 52.6031 52.3251 52.4638 52.8739 52.3307C52.8834 52.3291 52.8278 52.3245 52.7991 52.3197C52.2854 52.2547 52.7323 52.2025 52.7244 52.1471C52.7005 52.0078 52.8087 51.8859 52.7944 51.7529C52.7817 51.6073 52.8007 51.4632 52.8293 51.3207C52.8548 51.1941 52.7371 51.0563 52.8278 50.9345C52.8691 50.8775 52.8261 50.8142 52.8866 50.7572C52.9995 50.6495 53.0743 50.5339 52.9088 50.4025C52.8054 50.3202 52.7148 50.2648 52.8787 50.2459C52.9088 50.23 52.9486 50.2125 52.9804 50.1889C53.1092 50.0922 52.7339 49.926 53.1188 49.8564C53.1347 49.8532 52.9836 49.8279 52.982 49.8215C52.9645 49.6807 52.8643 49.5255 52.982 49.4036C53.0901 49.2912 52.621 49.0949 53.1681 49.0443C53.1887 49.0427 53.0535 49.0157 53.044 49.0078C52.8579 48.848 53.3096 48.7814 52.9534 48.5963C52.947 48.593 53.0106 48.5994 53.0249 48.5978C53.5402 48.5535 52.5049 48.2606 53.378 48.2749C53.4019 48.2749 53.2857 48.2479 53.2508 48.2353C52.5701 47.9963 53.8122 48.058 52.9947 47.7968C52.9692 47.7889 53.0774 47.7983 53.1108 47.7968C53.7184 47.7715 53.4225 47.5846 53.2969 47.4453C53.1601 47.2918 53.9983 47.3091 53.2412 47.0369C52.9836 46.9435 53.3939 46.9356 53.37 46.8801C53.3081 46.7377 53.1887 46.5794 53.4352 46.4939C53.6817 46.41 52.9725 46.1472 53.7008 46.1583C53.7231 46.1583 53.5832 46.125 53.5656 46.114C53.2365 45.9224 54.0205 45.9398 53.4051 45.6929C53.3764 45.6818 53.615 45.715 53.6198 45.7071C53.6642 45.5837 53.6913 45.4586 53.7136 45.3303C53.7151 45.324 53.5593 45.286 53.5737 45.2844C53.9823 45.2338 53.4766 44.9995 53.7375 44.9187C53.9903 44.8427 53.413 44.5942 53.9759 44.5816C53.9855 44.5816 53.9331 44.5657 53.9044 44.5578C53.4114 44.4026 53.8615 44.4406 53.8631 44.3884C53.8694 44.2618 53.984 44.1572 53.9903 44.0306C53.9967 43.8898 54.0332 43.7551 54.0841 43.6254C54.1271 43.5097 54.0301 43.3626 54.1382 43.2597C54.1875 43.2121 54.1526 43.1441 54.2178 43.0966C54.3401 43.0063 54.4261 42.9003 54.2766 42.7547C54.1923 42.6739 54.1478 42.5805 54.3736 42.5346C54.6248 42.484 54.1541 42.2528 54.5469 42.2259C54.5629 42.2243 54.4149 42.1832 54.4149 42.1768C54.4134 42.0375 54.3306 41.8792 54.4562 41.7699C54.5723 41.6686 54.1223 41.4344 54.6709 41.4344C54.6916 41.4344 54.5596 41.3964 54.5501 41.3868C54.3783 41.2143 54.8316 41.1858 54.4913 40.9737C54.4849 40.9689 54.5485 40.9816 54.5629 40.9816C55.0797 40.98 54.0714 40.6111 54.9413 40.6934C54.9652 40.6951 54.8522 40.6602 54.8173 40.6444C54.7409 40.6111 54.6916 40.5842 54.6599 40.562C54.6137 40.5652 54.566 40.5652 54.5183 40.5637C54.3084 40.5367 54.1016 40.4829 53.9553 40.513C53.8599 40.5304 53.7645 40.5462 53.669 40.5637L53.4034 40.6063C53.2556 40.6286 53.1061 40.6476 52.9582 40.6571C52.6607 40.6761 52.3649 40.6571 52.0755 40.5447C51.4997 40.3199 50.9098 41.0608 50.3579 40.35C50.342 40.3294 50.3118 40.4734 50.2847 40.4924C50.1575 40.5873 50.0303 40.6048 49.9015 40.6017C49.7727 40.6 49.639 40.5668 49.5055 40.543C49.2415 40.5067 48.9647 40.5114 48.7787 40.8787C48.7612 40.9119 48.669 40.684 48.6323 40.6888C48.1155 40.7742 47.6065 40.9198 47.12 41.1161C47.0977 41.1257 47.131 41.284 47.1072 41.2776C46.9482 41.2317 46.813 41.2539 46.6889 41.2998C46.5633 41.3442 46.4551 41.4248 46.3517 41.5119C46.2468 41.5959 46.1466 41.6861 46.04 41.7621C45.932 41.8365 45.8143 41.8903 45.6727 41.9125C45.3928 41.9489 45.2337 42.18 45.0636 42.3747C44.9808 42.476 44.8919 42.5679 44.7789 42.628C44.6692 42.6929 44.5325 42.7262 44.3416 42.7087C44.3288 42.7072 44.3527 42.7594 44.3639 42.7879C44.5595 43.3119 44.0983 43.1251 43.9567 43.2913C43.6211 43.6697 43.2283 44.0116 42.9564 44.447C42.6589 44.9283 42.3806 45.4189 42.1406 45.9319C41.929 46.3894 41.8972 46.8976 41.7 47.363C41.6046 47.5783 41.6157 47.8221 41.5187 48.058C41.3532 48.5013 41.2118 48.9667 41.3851 49.4226C41.2674 49.9182 41.6603 50.4991 41.2849 51.0152C41.269 51.0373 41.4232 51.069 41.4248 51.0975C41.4583 51.7117 41.5743 52.3291 41.4773 52.9402C41.3883 53.5102 41.8781 54.0832 41.3453 54.6483C41.3247 54.669 41.463 54.7038 41.4726 54.7339C41.576 55.0251 41.5203 55.3196 41.4837 55.6124C41.5314 55.6457 41.5807 55.679 41.5218 55.7344C41.4471 55.8056 41.9195 55.7582 41.4471 55.9165V55.9211C41.4821 55.9148 41.5457 55.9038 41.5536 55.9038C41.7683 55.9148 41.3532 56.0636 41.735 56.0383C41.7429 56.0383 41.6794 56.0525 41.6666 56.0573C41.1863 56.2172 42.2407 56.0431 41.4057 56.2789C41.4042 56.2789 41.4058 56.2789 41.4042 56.2789C41.4153 56.2789 41.5044 56.2615 41.5362 56.2584C42.2407 56.1618 41.0496 56.4815 41.8893 56.3549C41.9147 56.3518 41.8098 56.3771 41.7795 56.3882C41.2101 56.5671 41.5378 56.5575 41.6936 56.575C41.8638 56.5955 41.0639 56.8236 41.8495 56.7159C42.1167 56.6795 41.7302 56.7982 41.7668 56.8125C41.8622 56.8505 42.0181 56.8758 41.8081 56.9771C41.5982 57.0784 42.3393 56.9771 41.6491 57.1797C41.6284 57.186 41.77 57.1592 41.789 57.1576C42.1532 57.1369 41.4074 57.3523 42.0563 57.2716C42.0864 57.2684 41.8511 57.3222 41.8511 57.327C41.8431 57.3871 41.8511 57.4425 41.8669 57.4963C41.8669 57.4963 41.9068 57.49 41.9449 57.4836C41.983 57.4773 42.0181 57.471 42.0117 57.4742C41.6412 57.6104 42.185 57.5549 41.9624 57.6594C41.7461 57.7607 42.3616 57.6895 41.8352 57.8541C41.8256 57.8573 41.8813 57.8478 41.9083 57.843C42.4157 57.7607 41.983 57.8748 41.9958 57.8953C42.026 57.9444 41.9481 58.0172 41.9799 58.0663C42.0133 58.1217 42.0181 58.1818 42.0117 58.2451C42.0054 58.3005 42.1421 58.3274 42.0706 58.3971C42.0387 58.4287 42.0912 58.4446 42.0451 58.4811C41.9576 58.5507 41.9083 58.614 42.0928 58.6267C42.1962 58.633 42.2646 58.6551 42.0689 58.7374C41.8478 58.8293 42.3584 58.7802 42.0021 58.9022C41.9863 58.9068 42.1389 58.88 42.1406 58.8815C42.185 58.9322 42.3123 58.9686 42.2296 59.0446C42.1532 59.1159 42.6462 59.0731 42.1342 59.2314C42.1151 59.2378 42.2502 59.214 42.2614 59.214C42.4761 59.2282 42.0594 59.3707 42.4442 59.3517C42.4522 59.3517 42.3886 59.366 42.3759 59.3692C41.894 59.5196 42.9516 59.3659 42.1134 59.586C42.0897 59.5923 42.2073 59.5733 42.2455 59.5686C42.9516 59.4847 41.7556 59.7823 42.6001 59.6715C42.6256 59.6683 42.5206 59.6921 42.4888 59.7015C41.9163 59.8694 42.2455 59.8646 42.4014 59.8853C42.5715 59.9074 41.7683 60.1211 42.5588 60.0277C42.8275 59.996 42.4396 60.1069 42.4761 60.1227C42.5715 60.1623 42.7274 60.1907 42.5175 60.2873C42.3059 60.3839 43.0518 60.2984 42.3584 60.4868C42.3377 60.4931 42.4793 60.4678 42.4984 60.4678C42.8626 60.452 42.1151 60.661 42.7656 60.5818C42.7799 60.5802 42.7289 60.5913 42.6732 60.604C42.6462 60.6103 42.6176 60.6166 42.5953 60.6213C42.5731 60.6261 42.5588 60.6309 42.5588 60.6309C42.5492 60.6831 42.5572 60.7322 42.5715 60.7797C42.5715 60.7797 42.6113 60.7734 42.6494 60.767C42.6876 60.7607 42.7226 60.7527 42.7162 60.7559C42.3457 60.8889 42.8864 60.8193 42.6637 60.919C42.4475 61.0203 43.0613 60.9238 42.5397 61.1042C42.5301 61.1074 42.5842 61.0947 42.6128 61.09C43.117 60.9854 42.6876 61.1153 42.7019 61.1343C42.7337 61.1786 42.6589 61.2514 42.6908 61.2958C42.7258 61.3448 42.7322 61.4018 42.7274 61.462C42.7241 61.5159 42.8609 61.5301 42.7957 61.6028C42.7656 61.6362 42.8196 61.6456 42.7751 61.6852C42.6923 61.758 42.6479 61.8261 42.8323 61.8198C42.9469 61.8166 43.0455 61.8055 42.896 61.8657C42.8705 61.8815 42.8371 61.9005 42.8132 61.9195C42.7131 61.9971 43.1027 61.9305 42.7575 62.0857C42.7432 62.0921 42.8912 62.0508 42.8927 62.0525C42.9421 62.0984 43.0692 62.1189 42.9945 62.2013C42.9245 62.2789 43.4096 62.1839 42.9151 62.3929C42.896 62.4008 43.0279 62.3628 43.0391 62.3628C43.2538 62.3532 42.853 62.5369 43.2315 62.4752C43.2395 62.4736 43.1774 62.4942 43.1647 62.5005C42.7004 62.7016 43.7341 62.4292 42.9261 62.7411C42.9039 62.749 43.0184 62.7173 43.055 62.7079C43.7468 62.5416 42.5922 62.9754 43.416 62.7649C43.4415 62.7586 43.3396 62.795 43.3094 62.8077C42.7608 63.0403 43.0852 62.9976 43.2411 62.9976C43.4112 62.9976 42.6399 63.3094 43.4096 63.1164C43.672 63.0498 43.2999 63.2097 43.3381 63.2192C43.4367 63.2446 43.5941 63.2524 43.3969 63.3743C43.1996 63.4978 43.9249 63.311 43.2617 63.5912C43.2426 63.5991 43.3794 63.5564 43.3985 63.5532C43.7563 63.4884 43.0422 63.7907 43.6768 63.6323C43.6911 63.6292 43.6418 63.6482 43.5893 63.6672C43.5623 63.6768 43.5353 63.6878 43.5146 63.6958C43.4939 63.7037 43.4795 63.71 43.4795 63.7115C43.478 63.7701 43.4923 63.824 43.5146 63.8746C43.5146 63.8746 43.5528 63.8635 43.5893 63.8524C43.6259 63.8414 43.6609 63.8303 43.6545 63.8334C43.303 64.0124 43.8358 63.8888 43.6275 64.0187C43.4255 64.1453 44.0267 63.9949 43.5241 64.2261C43.5162 64.2308 43.5686 64.2134 43.5957 64.2054C44.0887 64.0582 43.6736 64.2261 43.688 64.2451C43.7245 64.2894 43.6562 64.3702 43.6927 64.4145C43.7324 64.4635 43.7451 64.5221 43.7468 64.5854C43.7484 64.6409 43.8851 64.6488 43.8247 64.7263C43.7961 64.7627 43.8518 64.7691 43.8104 64.8118C43.7324 64.8909 43.6927 64.9622 43.8772 64.9464C43.9789 64.9385 44.0505 64.9495 43.8676 65.0572C43.6625 65.1791 44.1602 65.0555 43.8231 65.2297C43.8088 65.2376 43.9551 65.1885 43.9567 65.1902C44.0076 65.2345 44.1365 65.2503 44.0665 65.3374C44.0013 65.4181 44.4799 65.3026 43.998 65.5352C43.9806 65.5448 44.1093 65.5004 44.1205 65.4989C44.3336 65.4799 43.9424 65.6825 44.3193 65.6049C44.3273 65.6033 44.2669 65.6271 44.2541 65.6334C43.7993 65.855 44.8203 65.5415 44.025 65.8851C44.0028 65.8947 44.1157 65.8567 44.1523 65.8471C44.8362 65.6556 43.7007 66.1336 44.5165 65.893C44.542 65.8851 44.4418 65.9263 44.4116 65.9406C43.8724 66.1954 44.1953 66.1401 44.3512 66.1353C44.5213 66.1305 43.7627 66.4693 44.5261 66.2493C44.7852 66.1748 44.4195 66.3458 44.4577 66.3553C44.5563 66.3775 44.7153 66.3807 44.5229 66.5104C44.3304 66.6403 45.0493 66.4313 44.3956 66.732C44.3766 66.7416 44.5117 66.694 44.5308 66.6909C44.8871 66.6165 44.1826 66.9394 44.8124 66.7621C44.8267 66.7574 44.7773 66.778 44.7248 66.8001C44.6994 66.8112 44.6724 66.8223 44.6517 66.8318C44.6311 66.8413 44.6168 66.8477 44.6168 66.8477C44.6168 66.9062 44.6342 66.9601 44.6565 67.0107C44.6565 67.0107 44.6946 66.9996 44.7312 66.987C44.7678 66.9743 44.8028 66.9632 44.7948 66.9664C44.4482 67.1564 44.9777 67.0171 44.7725 67.1531C44.5753 67.2861 45.1718 67.1184 44.6756 67.3638C44.6676 67.3684 44.7185 67.3494 44.7455 67.3415C45.2337 67.1817 44.8234 67.3605 44.8394 67.3795C44.8776 67.4239 44.8107 67.5062 44.8489 67.5489C44.8903 67.5965 44.9046 67.6566 44.9077 67.7183C44.9109 67.7738 45.0477 67.7785 44.9889 67.8576C44.9619 67.8941 45.0175 67.9004 44.9762 67.9432C44.9014 68.0255 44.8171 68.1078 44.9999 68.0872L43.1344 68.8123C43.2268 68.7236 42.8832 68.7949 43.2156 68.6143C43.2299 68.6064 43.0852 68.6587 43.082 68.6571C43.0295 68.6128 42.8991 68.5986 42.9691 68.5099C43.0327 68.4259 42.554 68.5495 43.0327 68.3089C43.0503 68.2993 42.9214 68.3453 42.9103 68.3468C42.6956 68.3674 43.0836 68.1585 42.7083 68.2408C42.7004 68.2423 42.7608 68.2186 42.7735 68.2122C43.2251 67.9843 42.2073 68.3104 42.9977 67.9542C43.02 67.9447 42.907 67.9827 42.8705 67.9938C42.1882 68.1917 43.319 67.7026 42.5048 67.9495C42.4793 67.9574 42.5794 67.9146 42.6097 67.902C43.1472 67.6424 42.8244 67.6993 42.667 67.7041C42.4967 67.7089 43.2538 67.3669 42.4904 67.5885C42.2311 67.6646 42.5954 67.4904 42.5572 67.4808C42.457 67.4572 42.2996 67.454 42.492 67.3241C42.6844 67.1928 41.9656 67.4001 42.6192 67.1009C42.6383 67.0914 42.5031 67.1389 42.484 67.1421C42.1278 67.2149 42.8323 66.8935 42.2025 67.0677C42.1739 67.0756 42.3981 66.987 42.3981 66.9837C42.3981 66.9236 42.3806 66.8698 42.3584 66.8176C42.3584 66.8176 42.3202 66.8287 42.2837 66.8413C42.2471 66.854 42.2121 66.8651 42.2184 66.8603C42.5652 66.6719 42.0355 66.8049 42.2407 66.6704C42.4395 66.539 41.8416 66.6988 42.3393 66.4582C42.3472 66.4534 42.2948 66.4709 42.2677 66.4804C41.7763 66.6339 42.1898 66.4598 42.1739 66.4408C42.1358 66.3964 42.2041 66.3126 42.1659 66.2683C42.1246 66.2192 42.1119 66.1574 42.1103 66.0941C42.1087 66.0371 41.9703 66.0308 42.0308 65.9517C42.0578 65.9152 42.0037 65.9072 42.0435 65.8646C42.1198 65.7838 42.1596 65.7126 41.9751 65.7268C41.8733 65.7347 41.8002 65.7221 41.9846 65.6144C42.1898 65.4925 41.6921 65.6129 42.0291 65.4402C42.0435 65.4323 41.8972 65.4814 41.8956 65.4799C41.8447 65.4356 41.7143 65.4166 41.7859 65.3295C41.8526 65.2472 41.3708 65.3579 41.8543 65.13C41.8717 65.1221 41.7413 65.1632 41.7302 65.1649C41.5155 65.1791 41.9083 64.9812 41.5314 65.0524C41.5235 65.054 41.5839 65.0319 41.5966 65.0256C42.0546 64.8102 41.0272 65.1062 41.8288 64.7738C41.8511 64.7643 41.7365 64.8007 41.7016 64.8086C41.0145 64.9876 42.158 64.5285 41.3374 64.7532C41.3119 64.7595 41.4137 64.7215 41.4423 64.7073C41.9863 64.4635 41.6618 64.511 41.5044 64.511C41.3326 64.511 42.1007 64.1897 41.331 64.3875C41.0702 64.454 41.4392 64.2925 41.401 64.2814C41.3024 64.2545 41.1433 64.2451 41.3405 64.1216C41.5378 63.9965 40.811 64.1801 41.4742 63.9015C41.4932 63.8936 41.3565 63.9347 41.3374 63.9379C40.978 63.9981 41.6936 63.7004 41.0575 63.8524C41.0289 63.8587 41.2563 63.7796 41.2563 63.7749C41.2579 63.7148 41.2435 63.6593 41.2228 63.6055C41.2228 63.6055 41.1831 63.615 41.1466 63.626C41.11 63.6371 41.075 63.6467 41.0814 63.6435C41.436 63.4677 40.9001 63.5801 41.11 63.4519C41.3135 63.3284 40.7092 63.463 41.2149 63.243C41.2228 63.2398 41.1704 63.254 41.1433 63.262C40.6472 63.3965 41.0654 63.2367 41.0511 63.2177C41.0162 63.1701 41.0861 63.0894 41.0511 63.0419C41.0114 62.9896 41.0018 62.928 41.0018 62.863C41.0018 62.806 40.865 62.7902 40.9271 62.7142C40.9557 62.6794 40.9016 62.6683 40.9446 62.6271C41.0241 62.5496 41.0686 62.4799 40.8841 62.4831C40.7697 62.4846 40.671 62.4925 40.8189 62.4324C40.8444 62.4165 40.8777 62.396 40.9016 62.377C41.0018 62.2979 40.609 62.3549 40.9557 62.2029C40.97 62.1966 40.8221 62.2361 40.8189 62.2329C40.7697 62.1838 40.6408 62.1554 40.7172 62.0715C40.7871 61.9939 40.2989 62.0652 40.7998 61.8704C40.8189 61.8626 40.6854 61.8958 40.6742 61.8958C40.4579 61.891 40.865 61.7216 40.4834 61.7596C40.4754 61.7596 40.5374 61.7421 40.5502 61.7375C41.0241 61.5602 39.9744 61.7628 40.7998 61.5C40.8221 61.4921 40.706 61.5174 40.6694 61.5237C39.9649 61.6345 41.1497 61.2831 40.31 61.4177C40.2846 61.4208 40.3895 61.3939 40.4198 61.3828C40.9859 61.1913 40.6582 61.2024 40.5008 61.1771C40.3291 61.147 41.1306 60.9269 40.3386 61.0155C40.0699 61.0472 40.4595 60.938 40.4213 60.9221C40.3259 60.8841 40.17 60.8557 40.38 60.7591C40.5915 60.6625 39.8472 60.7512 40.539 60.5612C40.5597 60.5549 40.4182 60.5802 40.3991 60.5802C40.0349 60.596 40.7824 60.3918 40.1319 60.4647C40.1175 60.4662 40.1685 60.4536 40.2242 60.4409C40.2512 60.4346 40.2798 60.4282 40.3021 60.4219C40.3243 60.4171 40.3386 60.4124 40.3386 60.4108C40.3466 60.3523 40.3386 60.2968 40.3243 60.243C40.3243 60.243 40.2846 60.2477 40.2464 60.2541C40.2082 60.2604 40.1733 60.2652 40.1796 60.2636C40.5517 60.1338 40.0062 60.1829 40.2289 60.0831C40.4452 59.9849 39.8282 60.0514 40.3577 59.8916C40.3673 59.8884 40.3116 59.8979 40.2846 59.9026C39.7757 59.9802 40.2099 59.8709 40.1971 59.8504C40.1669 59.8013 40.2448 59.7301 40.2146 59.681C40.1812 59.6272 40.1764 59.5655 40.1844 59.5037C40.1908 59.4483 40.0556 59.4214 40.1256 59.3533C40.1573 59.3216 40.1048 59.3074 40.1509 59.271C40.2385 59.2029 40.2878 59.1396 40.1033 59.1286C39.9999 59.1222 39.9315 59.1016 40.1271 59.0193C40.3482 58.9275 39.8376 58.9782 40.1955 58.8546C40.2114 58.8499 40.0587 58.8768 40.0571 58.8752C40.0126 58.8245 39.887 58.7898 39.9697 58.7138C40.046 58.6425 39.5546 58.6884 40.0651 58.5285C40.0842 58.5222 39.949 58.5475 39.9379 58.5459C39.7232 58.5333 40.1399 58.3892 39.7566 58.4114C39.7487 58.4114 39.8122 58.3971 39.8249 58.3924C40.3068 58.2388 39.2508 58.4019 40.0874 58.1755C40.1112 58.1691 39.9935 58.1898 39.957 58.1945C39.2524 58.2863 40.4452 57.9761 39.6039 58.0964C39.5784 58.0995 39.6835 58.0742 39.7152 58.0647C40.2861 57.8905 39.9586 57.8984 39.8027 57.8811C39.6341 57.862 40.4341 57.6357 39.6468 57.7417C39.3797 57.7781 39.7661 57.661 39.7296 57.6467C39.6341 57.6104 39.4783 57.585 39.6882 57.4836C39.8982 57.3823 39.1569 57.4853 39.8472 57.2827C39.8679 57.2763 39.7263 57.3032 39.7072 57.3048C39.3446 57.327 40.089 57.1101 39.4401 57.1939C39.4098 57.1971 39.6453 57.1417 39.6453 57.1386C39.6532 57.08 39.6453 57.0246 39.6309 56.9708C39.6309 56.9708 39.5911 56.9771 39.553 56.9834C39.5149 56.9898 39.4798 56.9961 39.4862 56.9945C39.8488 56.8599 39.3383 56.9138 39.5244 56.8172C39.518 56.7998 39.5101 56.7808 39.5021 56.7745C38.9534 56.2742 38.3682 57.3364 37.8259 56.4737C37.8116 56.4499 37.7718 56.5686 37.7416 56.6051C37.1658 57.3111 36.5457 56.0842 35.9715 56.9297C35.954 56.955 35.9159 56.8472 35.8856 56.8156C35.3242 56.2235 34.7024 56.5449 34.176 56.6922C34.001 56.7413 33.8245 56.6985 33.648 56.6367C33.6655 56.6779 33.6766 56.7159 33.6082 56.7064C33.5112 56.6937 33.9152 56.974 33.4364 56.7365C33.419 56.7269 33.5351 56.7982 33.5446 56.8061C33.7037 56.9439 33.3077 56.757 33.6146 56.9819C33.621 56.9866 33.5653 56.955 33.5525 56.9486C33.1009 56.7254 34.001 57.2969 33.2361 56.8917C33.2154 56.8806 33.3156 56.9423 33.3474 56.9629C33.9391 57.3523 32.856 56.7666 33.5685 57.2273C33.5907 57.2415 33.4954 57.1893 33.4667 57.1749C32.9355 56.9074 33.1931 57.1053 33.3029 57.2098C33.4238 57.3238 32.6874 56.9391 33.3506 57.3729C33.5764 57.5201 33.2154 57.338 33.2377 57.3681C33.2917 57.4441 33.3984 57.5533 33.1837 57.4726C32.969 57.3919 33.5923 57.8003 32.9562 57.471C32.9371 57.4615 33.0595 57.536 33.0755 57.5471C33.3665 57.7607 32.6795 57.4045 33.2217 57.7655C33.2472 57.7813 33.0373 57.6641 33.0342 57.6657C32.996 57.6879 32.9737 57.7211 32.9578 57.756C32.9562 57.7576 33.0946 57.8399 33.0803 57.8335C32.7224 57.6705 33.1725 57.9776 32.9466 57.8905C32.7271 57.805 33.2393 58.1501 32.7462 57.9048C32.7383 57.9001 32.7844 57.9301 32.8083 57.9444C33.2441 58.2167 32.8496 58.0061 32.848 58.0235C32.8465 58.0663 32.7478 58.052 32.7462 58.0947C32.7447 58.1423 32.7144 58.1739 32.6762 58.1992C32.6428 58.223 32.7335 58.318 32.6428 58.3084C32.6015 58.3038 32.6349 58.3433 32.5793 58.3322C32.4759 58.3117 32.4044 58.3117 32.5411 58.4304C32.6174 58.4968 32.6604 58.5491 32.4648 58.4684C32.2453 58.3765 32.6667 58.6662 32.3264 58.5064C32.312 58.5 32.4441 58.5791 32.4441 58.5808C32.452 58.633 32.5315 58.7264 32.4266 58.7121C32.3296 58.6995 32.7335 58.9797 32.2549 58.7422C32.2373 58.7328 32.3535 58.804 32.363 58.8119C32.522 58.9496 32.126 58.7628 32.433 58.9876C32.4393 58.9924 32.3836 58.9607 32.371 58.9544C31.9193 58.7311 32.8195 59.3026 32.0545 58.8974C32.0338 58.8863 32.134 58.9481 32.1658 58.9686C32.7574 59.3581 31.6743 58.7723 32.3868 59.233C32.4091 59.2472 32.3137 59.195 32.285 59.1808C31.7539 58.9132 32.0115 59.1111 32.1212 59.2155C32.2421 59.3295 31.5057 58.9448 32.1689 59.3786C32.3948 59.5259 32.0338 59.3438 32.056 59.3738C32.1101 59.4499 32.2167 59.5591 32.002 59.4784C31.7873 59.3976 32.4107 59.8061 31.7746 59.4768C31.7555 59.4673 31.878 59.5417 31.8938 59.5528C32.1849 59.7665 31.4978 59.4103 32.0402 59.7713C32.0656 59.7871 31.8556 59.6699 31.8525 59.6715C31.8143 59.6937 31.792 59.727 31.7761 59.7617C31.7746 59.7633 31.9129 59.8456 31.8986 59.8393C31.5408 59.6762 31.9908 59.9834 31.765 59.8963C31.5456 59.8108 32.0576 60.156 31.5646 59.9106C31.5566 59.9058 31.6028 59.9359 31.6266 59.9501C32.0624 60.2224 31.668 60.0119 31.6664 60.0293C31.6648 60.072 31.5662 60.0578 31.5646 60.1005C31.563 60.148 31.5329 60.1796 31.4947 60.205C31.4613 60.2287 31.5518 60.3237 31.4613 60.3143C31.4199 60.3095 31.4533 60.349 31.3977 60.338C31.2943 60.3174 31.2227 60.3174 31.3595 60.4361C31.4453 60.5106 31.5217 60.5707 31.3786 60.4995C31.3499 60.49 31.3149 60.4773 31.2863 60.4694C31.1687 60.4377 31.4883 60.6673 31.1479 60.5073C31.1336 60.501 31.2656 60.5802 31.2656 60.5818C31.2736 60.6341 31.3531 60.7274 31.2482 60.7132C31.1511 60.7005 31.5551 60.9808 31.0763 60.7433C31.0589 60.7337 31.175 60.805 31.1845 60.8129C31.3435 60.9507 30.9476 60.7638 31.2545 60.9887C31.2609 60.9934 31.2052 60.9618 31.1925 60.9554C30.7408 60.7322 31.6409 61.3037 30.876 60.8984C30.8553 60.8873 30.9555 60.9491 30.9874 60.9697C31.579 61.3591 30.4959 60.7734 31.2084 61.234C31.2306 61.2483 31.1352 61.1961 31.1066 61.1817C30.5754 60.9142 30.8331 61.1121 30.9428 61.2166C31.0636 61.3306 30.3273 60.9459 30.9905 61.3797C31.2163 61.5269 30.8553 61.3448 30.8776 61.3749C30.9316 61.4509 31.0382 61.5602 30.8235 61.4794C30.6088 61.3987 31.2322 61.8071 30.596 61.4778C30.5771 61.4683 30.6994 61.5427 30.7154 61.5537C31.0064 61.7675 30.3194 61.4113 30.8616 61.7722C30.8871 61.7881 30.6772 61.6709 30.674 61.6725C30.6359 61.6947 30.6136 61.7279 30.5977 61.7628C30.596 61.7644 30.7345 61.8467 30.7202 61.8403C30.3624 61.6773 30.8124 61.9844 30.5865 61.8973C30.3671 61.8118 30.8792 62.1569 30.3861 61.9115C30.3782 61.9069 30.4243 61.9369 30.4482 61.9512C30.884 62.2235 30.4895 62.0129 30.488 62.0303C30.4864 62.0731 30.3877 62.0588 30.3861 62.1015C30.3846 62.149 30.3543 62.1807 30.3161 62.206C30.2828 62.2298 30.3734 62.3248 30.2828 62.3152C30.2414 62.3106 30.2748 62.3501 30.2191 62.339C30.1158 62.3184 30.0443 62.3184 30.181 62.4372C30.2573 62.5036 30.3003 62.5559 30.1047 62.4752C29.8852 62.3833 30.3067 62.673 29.9664 62.5132C29.952 62.5068 30.084 62.5859 30.084 62.5876C30.092 62.6398 30.1715 62.7332 30.0665 62.7189C29.9695 62.7062 30.3734 62.9865 29.8948 62.749C29.8773 62.7396 29.9934 62.8108 30.0029 62.8187C30.162 62.9564 29.7659 62.7696 30.0729 62.9944C30.0792 62.9992 30.0235 62.9675 30.0108 62.9612C29.5592 62.7379 30.4593 63.3094 29.6944 62.9042C29.6737 62.8931 29.7739 62.9548 29.8057 62.9754C30.3973 63.3649 29.3142 62.7791 30.0268 63.2398C30.049 63.254 29.9536 63.2018 29.9249 63.1876C29.3937 62.92 29.6514 63.1179 29.7611 63.2223C29.8821 63.3363 29.1457 62.9516 29.8088 63.3854C30.0347 63.5327 29.6737 63.3506 29.6959 63.3806C29.75 63.4567 29.8566 63.5659 29.6419 63.4852C29.4272 63.4044 30.0506 63.8129 29.4145 63.4836C29.3954 63.4741 29.5179 63.5485 29.5337 63.5596C29.8248 63.7733 29.1377 63.4171 29.6801 63.7781C29.7054 63.7939 29.4955 63.6767 29.4924 63.6783C29.4542 63.7004 29.4319 63.7338 29.4161 63.7685C29.4145 63.7701 29.5528 63.8524 29.5385 63.8461C29.1807 63.683 29.6307 63.9901 29.4049 63.9031C29.1854 63.8176 29.6975 64.1628 29.2045 63.9174C29.1966 63.9126 29.2427 63.9427 29.2666 63.9569C29.7023 64.2292 29.3079 64.0187 29.3063 64.036C29.3047 64.0788 29.2062 64.0646 29.2045 64.1073C29.2029 64.1548 29.1728 64.1864 29.1346 64.2118C29.1011 64.2355 29.1918 64.3305 29.1011 64.3211C29.0598 64.3163 29.0932 64.3558 29.0376 64.3447C28.9342 64.3242 28.8244 64.2989 28.9612 64.416L27.234 63.4061C27.3517 63.4377 27.0735 63.2287 27.4138 63.3886C27.4281 63.395 27.2961 63.3158 27.2961 63.3142C27.2882 63.262 27.2086 63.1686 27.3135 63.1828C27.4106 63.1955 27.0066 62.9153 27.4854 63.1527C27.5029 63.1622 27.3868 63.091 27.3772 63.083C27.2182 62.9453 27.6142 63.1321 27.3072 62.9073C27.3008 62.9026 27.3565 62.9343 27.3692 62.9406C27.821 63.1638 26.9208 62.5923 27.6858 62.9976C27.7064 63.0086 27.6062 62.947 27.5744 62.9263C26.9828 62.5369 28.0658 63.1227 27.3534 62.6619C27.3311 62.6477 27.4265 62.6999 27.4551 62.7142C27.9863 62.9817 27.7286 62.7839 27.6189 62.6794C27.4981 62.5654 28.2344 62.9501 27.5712 62.5163C27.3454 62.3691 27.7064 62.5512 27.6841 62.5211C27.6301 62.4451 27.5235 62.3359 27.7382 62.4165C27.9529 62.4973 27.3279 62.0888 27.9657 62.4182C27.9847 62.4276 27.8623 62.3532 27.8463 62.3422C27.5554 62.1285 28.2423 62.4846 27.7001 62.1237C27.6746 62.1063 27.8845 62.225 27.8877 62.2235C27.9259 62.2013 27.9481 62.168 27.9641 62.1332C27.9641 62.1316 27.8272 62.0493 27.8416 62.0556C28.1994 62.2187 27.7493 61.9116 27.9752 61.9986C28.1946 62.0825 27.6825 61.739 28.1756 61.9844C28.1835 61.9892 28.1374 61.9591 28.1136 61.9449C27.6777 61.6725 28.0722 61.8831 28.0737 61.8657C28.0754 61.8229 28.174 61.8371 28.1756 61.7945C28.1771 61.7469 28.2074 61.7153 28.2456 61.6899C28.2789 61.6678 28.1883 61.5712 28.2789 61.5807C28.3202 61.5855 28.2869 61.5459 28.3426 61.557C28.446 61.5775 28.5175 61.5775 28.3808 61.4588C28.3044 61.3923 28.2614 61.3401 28.457 61.4208C28.6765 61.5126 28.2551 61.2229 28.5955 61.3828C28.6097 61.3891 28.4778 61.31 28.4778 61.3085C28.4697 61.2562 28.3903 61.1627 28.4952 61.1771C28.5922 61.1897 28.1883 60.9095 28.667 61.147C28.6844 61.1564 28.5683 61.0852 28.5588 61.0773C28.3998 60.9396 28.7959 61.1264 28.4888 60.9016C28.4825 60.8968 28.5382 60.9285 28.5509 60.9348C29.0025 61.1581 28.1024 60.5865 28.8673 60.9918C28.8881 61.0029 28.7878 60.9411 28.756 60.9206C28.1644 60.5311 29.2475 61.1169 28.5349 60.6562C28.5127 60.642 28.6082 60.6942 28.6368 60.7084C29.168 60.976 28.9103 60.778 28.8005 60.6736C28.6797 60.5597 29.4161 60.9443 28.7529 60.5106C28.527 60.3634 28.8881 60.5453 28.8658 60.5153C28.8117 60.4393 28.7052 60.3301 28.9199 60.4108C29.1346 60.4916 28.5112 60.0831 29.1473 60.4124C29.1663 60.4219 29.0439 60.3475 29.028 60.3364C28.7369 60.1227 29.424 60.4789 28.8817 60.118C28.8563 60.1005 29.0662 60.2193 29.0694 60.2176C29.1075 60.1955 29.1298 60.1623 29.1456 60.1274C29.1456 60.1259 29.0089 60.0436 29.0233 60.0499C29.3811 60.213 28.931 59.9058 29.1568 59.9929C29.3763 60.0768 28.8642 59.7333 29.3572 59.9786C29.3651 59.9834 29.319 59.9533 29.2951 59.939C28.8594 59.6668 29.2538 59.8773 29.2554 59.8599C29.257 59.8172 29.3556 59.8314 29.3572 59.7886C29.3588 59.7412 29.389 59.7095 29.4272 59.6842C29.4606 59.662 29.3699 59.5655 29.4606 59.5749C29.5019 59.5797 29.4685 59.5401 29.5242 59.5512C29.6275 59.5718 29.6991 59.5718 29.5623 59.453C29.4765 59.3786 29.4001 59.3185 29.5432 59.3897C29.5719 59.3993 29.6069 59.4119 29.6355 59.4198C29.7532 59.4515 29.4336 59.2219 29.7739 59.3818C29.7882 59.3882 29.6562 59.309 29.6562 59.3074C29.6483 59.2552 29.5687 59.1618 29.6737 59.176C29.7706 59.1887 29.3667 58.9085 29.8454 59.1459C29.863 59.1554 29.7469 59.0841 29.7373 59.0762C29.5783 58.9385 29.9743 59.1253 29.6674 58.9005C29.661 58.8958 29.7166 58.9275 29.7293 58.9338C30.181 59.157 29.2809 58.5855 30.0458 58.9908C30.0665 59.0018 29.9663 58.9402 29.9345 58.9195C29.3429 58.5302 30.4259 59.1159 29.7135 58.6551C29.6912 58.6409 29.7866 58.6931 29.8152 58.7074C30.3464 58.9749 30.0887 58.7771 29.9791 58.6726C29.8582 58.5586 30.5945 58.9433 29.9313 58.5095C29.7054 58.3623 30.0665 58.5444 30.0443 58.5143C29.9901 58.4383 29.8836 58.3291 30.0983 58.4097C30.313 58.4905 29.6896 58.082 30.3257 58.4114C30.3448 58.4209 30.2224 58.3464 30.2064 58.3354C29.9154 58.1217 30.6024 58.4778 30.0601 58.1169C30.0347 58.0995 30.2446 58.2182 30.2478 58.2167C30.286 58.1945 30.3082 58.1612 30.3242 58.1264C30.3242 58.1248 30.1874 58.0425 30.2017 58.0488C30.5595 58.2119 30.1095 57.9048 30.3352 57.9918C30.5547 58.0757 30.0426 57.7322 30.5356 57.9776C30.5436 57.9824 30.4975 57.9523 30.4737 57.9381C30.0379 57.6657 30.4323 57.8763 30.4338 57.8589C30.4355 57.8161 30.5341 57.8303 30.5356 57.7877C30.5372 57.7401 30.5675 57.7085 30.6056 57.6831C30.639 57.661 30.5484 57.5644 30.639 57.5739C30.6803 57.5787 30.647 57.5391 30.7027 57.5502C30.806 57.5707 30.8776 57.5707 30.7408 57.452C30.6645 57.3855 30.6215 57.3333 30.8171 57.414C31.0366 57.5058 30.6151 57.2161 30.9555 57.376C30.9698 57.3823 30.8379 57.3032 30.8379 57.3017C30.8298 57.2494 30.7503 57.1559 30.8553 57.1703C30.9523 57.1829 30.5484 56.9027 31.0271 57.1402C31.0445 57.1496 30.9285 57.0784 30.9189 57.0705C30.7599 56.9328 31.1559 57.1196 30.8489 56.8948C30.8426 56.89 30.8983 56.9217 30.911 56.928C31.3626 57.1513 30.4625 56.5797 31.2275 56.985C31.2482 56.9961 31.1479 56.9343 31.1161 56.9138C31.0445 56.8662 30.9968 56.833 30.9683 56.8109C30.5865 56.8583 30.2033 56.8679 29.8311 56.7223C29.2523 56.4974 28.6717 57.2399 28.1088 56.5259C28.0913 56.5053 28.0563 56.6478 28.0261 56.6668C27.452 57.0246 26.8587 56.2552 26.2862 56.9027C26.2592 56.9328 26.2067 56.6922 26.1638 56.6906C25.8712 56.6811 25.5769 56.6747 25.2843 56.6716L24.8437 56.67H24.6243H24.5113L24.3746 56.6653C24.3412 56.6636 24.2935 56.8219 24.2665 56.8046C24.1742 56.7507 24.0836 56.7127 23.993 56.6843C23.9023 56.6478 23.8132 56.6225 23.7226 56.6051C23.6319 56.5861 23.5397 56.5797 23.4458 56.5671C23.4029 56.5607 23.3599 56.556 23.3154 56.5512C23.3281 56.5829 23.309 56.5955 23.1612 56.5322C23.1595 56.5322 23.1564 56.5322 23.1548 56.5322C23.177 56.5481 23.2661 56.6019 23.2661 56.6051C23.2677 56.6668 23.3408 56.7713 23.2311 56.7681C23.1294 56.7649 23.5269 57.0546 23.0419 56.8282C23.0244 56.8204 23.1404 56.8916 23.1485 56.8996C23.3011 57.0467 22.8987 56.871 23.2009 57.1053C23.2073 57.1101 23.15 57.0784 23.1373 57.0721C22.6792 56.8583 23.5746 57.4393 22.8034 57.0436C22.7826 57.0325 22.8829 57.0958 22.913 57.1164C23.4984 57.517 22.4105 56.9407 23.1166 57.4109C23.1389 57.4251 23.0435 57.3729 23.0133 57.3587C22.4757 57.1006 22.727 57.308 22.832 57.422C22.9465 57.5454 22.2054 57.1703 22.8622 57.6151C23.0848 57.767 22.7222 57.5897 22.7413 57.623C22.789 57.7085 22.8892 57.8288 22.6697 57.756C22.4487 57.6847 23.0673 58.1043 22.4248 57.7829C22.4057 57.7733 22.5282 57.8478 22.5425 57.8604C22.8272 58.0837 22.1354 57.737 22.6713 58.109C22.6968 58.1264 22.4853 58.0077 22.4821 58.0108C22.4392 58.0441 22.4105 58.0853 22.3883 58.1296C22.3866 58.1311 22.5235 58.2151 22.5107 58.2088C22.1481 58.0552 22.5902 58.3734 22.3596 58.2958C22.1338 58.2214 22.6411 58.5745 22.1418 58.3385C22.1338 58.3338 22.1799 58.3639 22.2037 58.3797C22.6364 58.6568 22.2403 58.4494 22.2371 58.4699C22.2292 58.5222 22.1258 58.5175 22.1179 58.5697C22.1099 58.6267 22.0733 58.6694 22.0288 58.7058C21.989 58.7374 22.075 58.8435 21.978 58.8435C21.9334 58.8435 21.9652 58.8879 21.9064 58.8815C21.7982 58.8689 21.7203 58.88 21.8523 59.0066C21.9255 59.0779 21.9652 59.1364 21.7648 59.062C21.5405 58.9782 21.9572 59.2773 21.6105 59.1253C21.5963 59.119 21.7267 59.1998 21.7267 59.2013C21.7282 59.2631 21.8014 59.3675 21.6917 59.3644C21.5899 59.3612 21.9875 59.6509 21.5024 59.4246C21.4849 59.4166 21.6011 59.4879 21.609 59.4958C21.7616 59.643 21.3592 59.4673 21.6615 59.7015C21.6678 59.7063 21.6105 59.6747 21.5978 59.6683C21.1398 59.4546 22.0351 60.0357 21.2639 59.6399C21.2432 59.6288 21.3434 59.6921 21.3736 59.7126C21.9589 60.1132 20.871 59.5369 21.5772 60.0071C21.5994 60.0213 21.504 59.9691 21.4738 59.9549C20.9362 59.6969 21.1875 59.9043 21.2925 60.0182C21.407 60.1417 20.6659 59.7665 21.3227 60.2113C21.5453 60.3634 21.1827 60.186 21.2018 60.2193C21.2496 60.3047 21.3497 60.425 21.1302 60.3523C20.9092 60.281 21.5278 60.7005 20.8854 60.3791C20.8663 60.3697 20.9887 60.444 21.0031 60.4567C21.2877 60.68 20.5959 60.3333 21.1318 60.7053C21.1573 60.7227 20.9458 60.604 20.9426 60.6071C20.8997 60.6404 20.871 60.6815 20.8488 60.7258C20.8472 60.7274 20.984 60.8114 20.9713 60.805C20.6086 60.6514 21.0508 60.9697 20.8201 60.892C20.5943 60.8177 21.1017 61.1707 20.6023 60.9348C20.5943 60.93 20.6405 60.9601 20.6642 60.976C21.0969 61.253 20.7009 61.0456 20.6977 61.0662C20.6897 61.1184 20.5863 61.1137 20.5784 61.1659C20.5705 61.2229 20.5338 61.2657 20.4894 61.3021C20.4495 61.3338 20.5355 61.4398 20.4385 61.4398C20.3939 61.4398 20.4258 61.4841 20.3669 61.4778C20.2587 61.4651 20.1808 61.4762 20.3128 61.6028C20.3955 61.682 20.4703 61.7454 20.3239 61.6773C20.2954 61.6694 20.2587 61.6567 20.2302 61.6519C20.1061 61.6298 20.4225 61.8672 20.0759 61.7153C20.0616 61.7089 20.192 61.7897 20.192 61.7912C20.1935 61.853 20.2667 61.9575 20.1569 61.9543C20.0552 61.9512 20.4528 62.2409 19.9677 62.0145C19.9503 62.0065 20.0663 62.0778 20.0743 62.0857C20.2269 62.2329 19.8245 62.0572 20.1268 62.2916C20.1331 62.2962 20.0759 62.2646 20.0631 62.2582C19.6052 62.0445 20.5005 62.6256 19.7292 62.2298C19.7084 62.2187 19.8087 62.282 19.8389 62.3026C20.4242 62.7031 19.3363 62.1268 20.0425 62.597C20.0647 62.6113 19.9694 62.5591 19.9391 62.5448C19.4015 62.2868 19.6528 62.4942 19.7578 62.6081C19.8723 62.7316 19.1312 62.3564 19.788 62.8013C20.0107 62.9533 19.648 62.7759 19.6671 62.8092C19.7148 62.8946 19.8151 63.0149 19.5956 62.9422C19.3745 62.871 19.9931 63.2904 19.3506 62.9691C19.3315 62.9596 19.454 63.0339 19.4683 63.0466C19.753 63.2699 19.0612 62.9232 19.5971 63.2952C19.6226 63.3126 19.4111 63.1939 19.4079 63.197C19.365 63.2303 19.3363 63.2714 19.3141 63.3158C19.3125 63.3173 19.4493 63.4013 19.4366 63.395C19.074 63.2413 19.5161 63.5596 19.2854 63.482C19.0597 63.4076 19.567 63.7606 19.0676 63.5247C19.0597 63.52 19.1058 63.55 19.1296 63.5659C19.5622 63.843 19.1662 63.6356 19.163 63.6561C19.155 63.7083 19.0516 63.7037 19.0437 63.7559C19.0358 63.8129 18.9992 63.8556 18.9546 63.8921C18.9149 63.9237 19.0008 64.0298 18.9038 64.0298C18.8593 64.0298 18.8911 64.0741 18.8322 64.0678C18.7241 64.0551 18.6461 64.0661 18.7781 64.1928C18.8513 64.2641 18.8911 64.3226 18.6907 64.2482C18.4664 64.1643 18.883 64.4635 18.5364 64.3115C18.5221 64.3052 18.6525 64.3859 18.6525 64.3875C18.6541 64.4493 18.7272 64.5538 18.6175 64.5506C18.5157 64.5475 18.9133 64.8372 18.4282 64.6108C18.4108 64.6029 18.5269 64.6741 18.5348 64.682C18.6874 64.8292 18.2851 64.6535 18.5873 64.8878C18.5937 64.8925 18.5364 64.8608 18.5237 64.8545C18.0657 64.6409 18.961 65.2218 18.1897 64.8261C18.1691 64.8149 18.2692 64.8783 18.2995 64.8988C18.8847 65.2994 17.7968 64.7232 18.503 65.1933C18.5252 65.2076 18.4299 65.1553 18.3996 65.1411C17.862 64.883 18.1134 65.0904 18.2183 65.2044C18.3328 65.3279 17.5917 64.9527 18.2486 65.3976C18.4712 65.5495 18.1086 65.3722 18.1276 65.4055C18.1754 65.4909 18.2756 65.6113 18.0561 65.5384C17.835 65.4672 18.4537 65.8867 17.8112 65.5653C17.7921 65.5559 17.9145 65.6303 17.9289 65.643C18.2135 65.8661 17.5217 65.5194 18.0576 65.8915C18.0831 65.9089 17.8716 65.7901 17.8684 65.7933C17.8255 65.8266 17.7968 65.8677 17.7746 65.912C17.773 65.9137 17.9098 65.9975 17.8971 65.9912C17.5345 65.8377 17.9766 66.1558 17.746 66.0783C17.5202 66.0039 18.0275 66.3569 17.5281 66.121C17.5202 66.1163 17.5663 66.1463 17.5902 66.1622C18.0227 66.4392 17.6267 66.2318 17.6236 66.2524C17.6155 66.3047 17.5122 66.2999 17.5042 66.3521C17.4963 66.4091 17.4597 66.4519 17.4152 66.4883C17.3755 66.52 17.4613 66.626 17.3643 66.626C17.3198 66.626 17.3516 66.6704 17.2927 66.664C17.1846 66.6514 17.0685 66.6355 17.2005 66.7621L15.4734 65.7522C15.5974 65.7743 15.3239 65.5574 15.669 65.7078C15.6833 65.7142 15.5529 65.6334 15.5529 65.6318C15.5513 65.5701 15.4782 65.4656 15.5879 65.4688C15.6896 65.4719 15.2921 65.1822 15.7772 65.4086C15.7946 65.4166 15.6785 65.3453 15.6705 65.3374C15.5179 65.1902 15.9203 65.3659 15.6181 65.1315C15.6117 65.1269 15.669 65.1585 15.6817 65.1649C16.1397 65.3786 15.2444 64.7975 16.0156 65.1933C16.0364 65.2044 15.9361 65.1411 15.9059 65.1205C15.3206 64.72 16.4085 65.2963 15.7024 64.8261C15.6801 64.8118 15.7755 64.864 15.8057 64.8783C16.3433 65.1363 16.092 64.9289 15.9871 64.8149C15.8725 64.6915 16.6136 65.0667 15.9568 64.6218C15.7342 64.4698 16.0968 64.6471 16.0777 64.6139C16.03 64.5285 15.9298 64.4081 16.1493 64.4809C16.3703 64.5521 15.7517 64.1327 16.3942 64.454C16.4132 64.4635 16.2908 64.3892 16.2764 64.3765C15.9918 64.1532 16.6836 64.4999 16.1477 64.1279C16.1223 64.1104 16.3337 64.2292 16.3369 64.2261C16.3798 64.1928 16.4085 64.1517 16.4307 64.1073C16.4323 64.1058 16.2955 64.0218 16.3083 64.0281C16.6709 64.1818 16.2288 63.8635 16.4594 63.9411C16.6852 64.0155 16.1779 63.6625 16.6772 63.8984C16.6852 63.9031 16.6391 63.8731 16.6153 63.8572C16.1827 63.5801 16.5787 63.7875 16.5818 63.767C16.5898 63.7148 16.6932 63.7194 16.7011 63.6672C16.7091 63.6102 16.7457 63.5675 16.7886 63.531C16.8283 63.4994 16.7425 63.3933 16.8395 63.3933C16.884 63.3933 16.8522 63.349 16.911 63.3553C17.0192 63.368 17.0971 63.357 16.9651 63.2303C16.8919 63.159 16.8522 63.1005 17.0526 63.1749C17.2768 63.2588 16.8601 62.9596 17.2069 63.1116C17.2212 63.1179 17.0908 63.0372 17.0908 63.0356C17.0891 62.9738 17.016 62.8693 17.1257 62.8725C17.2276 62.8756 16.83 62.5859 17.315 62.8123C17.3325 62.8203 17.2164 62.749 17.2085 62.7411C17.0557 62.5939 17.4581 62.7697 17.156 62.5353C17.1496 62.5306 17.2069 62.5623 17.2196 62.5686C17.6776 62.7822 16.7822 62.2013 17.5536 62.597C17.5742 62.6082 17.4741 62.5448 17.4438 62.5243C16.8586 62.1237 17.9463 62.6999 17.2403 62.2298C17.218 62.2156 17.3134 62.2678 17.3437 62.282C17.8811 62.5401 17.6299 62.3327 17.525 62.2187C17.4104 62.0952 18.1515 62.4704 17.4947 62.0255C17.2721 61.8736 17.6346 62.0508 17.6155 62.0176C17.5678 61.9322 17.4677 61.8118 17.6871 61.8847C17.9082 61.9559 17.2895 61.5364 17.932 61.8578C17.9511 61.8672 17.8287 61.7928 17.8144 61.7801C17.5297 61.557 18.2215 61.9037 17.6855 61.5316C17.6601 61.5142 17.8716 61.6329 17.8748 61.6298C17.9177 61.5965 17.9463 61.5554 17.9687 61.5111C17.9702 61.5094 17.8335 61.4256 17.8462 61.4319C18.2088 61.5855 17.7667 61.2673 17.9972 61.3448C18.2231 61.4192 17.7158 61.0662 18.2152 61.3021C18.2231 61.3068 18.177 61.2768 18.1531 61.2609C17.7206 60.9839 18.1166 61.1913 18.1197 61.1707C18.1276 61.1184 18.231 61.1232 18.239 61.071C18.247 61.014 18.2835 60.9712 18.3265 60.9348C18.3662 60.9031 18.2804 60.797 18.3774 60.797C18.4219 60.797 18.3901 60.7527 18.449 60.7591C18.557 60.7717 18.635 60.7607 18.503 60.6341C18.4203 60.5549 18.3456 60.4916 18.4918 60.5597C18.5205 60.5675 18.557 60.5802 18.5857 60.585C18.7098 60.6071 18.3932 60.3697 18.7399 60.5217C18.7543 60.528 18.6239 60.4472 18.6239 60.4457C18.6222 60.3839 18.5491 60.2794 18.6589 60.2826C18.7607 60.2857 18.363 59.996 18.8481 60.2224C18.8656 60.2303 18.7495 60.1591 18.7416 60.1512C18.5889 60.0039 18.9912 60.1796 18.6891 59.9454C18.6827 59.9406 18.7399 59.9723 18.7526 59.9786C19.2107 60.1923 18.3153 59.6113 19.0867 60.0071C19.1073 60.0182 19.0072 59.9549 18.9769 59.9343C18.3917 59.5338 19.4795 60.11 18.7734 59.6399C18.7511 59.6256 18.8465 59.6779 18.8767 59.6921C19.4143 59.9501 19.163 59.7427 19.058 59.6288C18.9435 59.5053 19.6847 59.8805 19.0278 59.4356C18.8051 59.2836 19.1677 59.4609 19.1486 59.4277C19.101 59.3422 19.0008 59.2219 19.2202 59.2947C19.4413 59.366 18.8226 58.9465 19.4652 59.2679C19.4843 59.2773 19.3618 59.2029 19.3475 59.1902C19.0628 58.967 19.7546 59.3137 19.2186 58.9417C19.1932 58.9243 19.4048 59.043 19.4079 59.0398C19.4509 59.0066 19.4795 58.9655 19.5018 58.9212C19.5033 58.9195 19.3666 58.8356 19.3793 58.842C19.7419 58.9955 19.2998 58.6773 19.5304 58.7549C19.7562 58.8293 19.2489 58.4763 19.7483 58.7121C19.7562 58.7169 19.7101 58.6868 19.6862 58.671C19.2536 58.394 19.6496 58.6014 19.6528 58.5808C19.6608 58.5285 19.7641 58.5333 19.7721 58.4811C19.78 58.4241 19.8151 58.3813 19.8596 58.3449C19.8994 58.3132 19.8135 58.2071 19.9105 58.2071C19.955 58.2071 19.9231 58.1628 19.9821 58.1691C20.0902 58.1818 20.1681 58.1707 20.0361 58.0441C19.963 57.9729 19.9231 57.9143 20.1235 57.9887C20.3478 58.0726 19.9312 57.7733 20.2778 57.9254C20.2921 57.9317 20.1617 57.851 20.1617 57.8493C20.1602 57.7877 20.087 57.6831 20.1968 57.6864C20.2985 57.6895 19.9009 57.3998 20.386 57.6262C20.4034 57.634 20.2873 57.5628 20.2794 57.5549C20.1268 57.4077 20.5291 57.5834 20.2269 57.3491C20.2206 57.3443 20.2778 57.376 20.2906 57.3823C20.7485 57.5961 19.8532 57.0151 20.6245 57.4109C20.6453 57.422 20.545 57.3587 20.5147 57.338C19.9295 56.9375 21.0174 57.5137 20.3112 57.0436C20.289 57.0293 20.3843 57.0816 20.4146 57.0958C20.9522 57.3539 20.7009 57.1465 20.5959 57.0325C20.4814 56.909 21.2225 57.2842 20.5657 56.8393C20.343 56.6874 20.7057 56.8647 20.6881 56.8315C20.6405 56.7459 20.5402 56.6256 20.7597 56.6985C20.9808 56.7697 20.3621 56.3502 21.0046 56.6716C21.0237 56.6811 20.9013 56.6066 20.887 56.594C20.6023 56.3708 21.294 56.7175 20.7581 56.3455C20.7327 56.328 20.9442 56.4468 20.9474 56.4436C20.9904 56.4103 21.0189 56.3692 21.0412 56.3249C21.0428 56.3233 20.9061 56.2394 20.9188 56.2457C21.2813 56.3992 20.8392 56.0811 21.0698 56.1586C21.2957 56.2331 20.7884 55.88 21.2877 56.1159C21.2957 56.1206 21.2496 56.0905 21.2257 56.0748C20.7931 55.7977 21.1891 56.0051 21.1923 55.9846C21.2002 55.9322 21.3036 55.937 21.3116 55.8848C21.3195 55.8278 21.3561 55.7851 21.3991 55.7486C21.4134 55.7375 21.4117 55.717 21.407 55.6964C21.3306 55.6568 21.2543 55.6156 21.1764 55.5761C21.0222 55.4763 20.8694 55.3671 20.7566 55.2231C20.6516 55.071 20.5689 54.8985 20.5705 54.6753C20.5705 54.6594 20.5147 54.6769 20.4814 54.6817C20.1904 54.718 20.0695 54.5993 20.0282 54.4409C19.9852 54.2811 19.9995 54.099 19.9248 53.9724C19.5653 53.3408 19.4509 52.6109 19.3824 51.9112C19.3427 51.4853 19.3538 51.2178 19.3523 50.8933C19.3538 50.5782 19.3618 50.2632 19.3714 49.9498C19.3888 49.3925 19.2616 48.8384 19.3443 48.278C19.3824 48.02 19.3332 47.7556 19.3857 47.4785C19.4858 46.9593 19.5462 46.4068 19.3681 45.9066C19.3188 45.7641 19.2744 45.6169 19.2807 45.4063C19.2886 45.2052 19.3205 44.982 19.4524 44.7557C19.5892 44.5024 19.5606 44.2174 19.5574 43.9182C19.5606 43.7694 19.5685 43.619 19.6083 43.475C19.6544 43.3325 19.7292 43.1964 19.8564 43.0823C19.877 43.0633 19.7419 42.9858 19.7499 42.9541C19.8803 42.4301 20.0265 41.8839 20.2937 41.4075H20.1586C20.2763 41.2143 19.8834 40.9895 20.2587 40.7884C20.2747 40.7805 20.1204 40.7679 20.1188 40.7568C20.0854 40.5177 19.9693 40.2787 20.0664 40.0397C20.1569 39.818 19.6656 39.5948 20.1983 39.3748C20.219 39.3669 20.0807 39.3525 20.0711 39.3415C19.8643 39.1136 20.3001 38.8824 19.9216 38.656C19.9136 38.6513 19.9788 38.6465 19.9931 38.6402C20.4958 38.4281 19.4285 38.2017 20.2954 37.9911C20.3191 37.9848 20.1999 37.9705 20.1633 37.9579C19.454 37.7347 20.6866 37.4957 19.8373 37.2724C19.8118 37.2661 19.92 37.2503 19.9518 37.2392C20.5466 37.0223 20.2238 36.7816 20.0759 36.5774C19.9136 36.3558 20.7438 36.131 19.9518 35.8904C19.6831 35.8096 20.0854 35.6688 20.052 35.5801C19.9661 35.3521 19.8199 35.1178 20.0456 34.8946C20.2715 34.6714 19.5256 34.445 20.2429 34.2281C20.2635 34.2218 20.1204 34.2076 20.1013 34.1965C19.7419 33.9749 20.5149 33.7437 19.8643 33.5236C19.8341 33.5142 20.0759 33.492 20.0774 33.4762C20.0981 33.2498 20.1013 33.0219 20.0981 32.7955C20.0981 32.7844 19.9375 32.7733 19.9518 32.7638C20.343 32.5358 19.7991 32.3047 20.0377 32.0768C20.2699 31.8551 19.6528 31.6303 20.2031 31.4118C20.2126 31.4087 20.1569 31.4007 20.1283 31.396C19.6147 31.3026 20.0616 31.2092 20.0536 31.1173C20.0345 30.8957 20.1252 30.6741 20.1061 30.4541C20.0838 30.2087 20.0934 29.9649 20.1125 29.7195C20.1299 29.5026 20.0027 29.2873 20.0854 29.0688C20.1235 28.9691 20.0743 28.8647 20.1283 28.757C20.2285 28.556 20.289 28.3407 20.1108 28.146C20.0122 28.0367 19.9486 27.8958 20.1569 27.7312C20.3924 27.5459 19.8818 27.3322 20.2572 27.1312C20.273 27.1232 20.1188 27.1106 20.1172 27.0995C20.0838 26.8605 19.9677 26.6214 20.0647 26.3824C20.1554 26.1608 19.664 25.9375 20.1968 25.7174C20.2174 25.7096 20.079 25.6969 20.0695 25.6842C19.8627 25.4563 20.2985 25.2251 19.92 24.9987C19.9121 24.994 19.9773 24.9876 19.9916 24.983C20.4941 24.7708 19.427 24.5444 20.2937 24.3339C20.3176 24.3276 20.1983 24.3132 20.1617 24.3006C19.4524 24.0774 20.685 23.8384 19.8357 23.6151C19.8103 23.6088 19.9184 23.593 19.9503 23.5819C20.545 23.365 20.2221 23.1244 20.0743 22.9201C19.9121 22.6985 20.7422 22.4737 19.9503 22.2331C19.6814 22.1523 20.0838 22.0115 20.0504 21.9228C19.9646 21.6949 19.8182 21.4605 20.044 21.2373C20.2699 21.0142 19.524 20.7878 20.2412 20.5708C20.262 20.5645 20.1188 20.5503 20.0997 20.5392C19.7403 20.3176 20.5132 20.0864 19.8627 19.8663C19.8326 19.8569 20.0743 19.8347 20.0759 19.8189C20.0965 19.5925 20.0998 19.3646 20.0965 19.1382C20.0965 19.1271 19.9359 19.116 19.9503 19.1065C20.3415 18.8786 19.7975 18.6474 20.0361 18.4195C20.2683 18.1978 19.6513 17.973 20.2015 17.7545C20.2111 17.7514 20.1554 17.7434 20.1268 17.7387C19.6131 17.6453 20.0599 17.5519 20.052 17.46C20.0329 17.2384 20.1235 17.0168 20.1044 16.7968C20.0822 16.5514 20.0917 16.3076 20.1108 16.0623C20.1283 15.8453 20.0011 15.63 20.0838 15.4115C20.122 15.3118 20.0726 15.2074 20.1268 15.0997C20.2269 14.8987 20.2873 14.6834 20.1092 14.4887C19.9979 14.3667 19.9009 14.2892 20.0616 14.2258C20.0902 14.1942 20.1268 14.1562 20.1554 14.1086C20.273 13.9156 19.8803 13.7097 20.2556 13.5087C20.2715 13.5008 20.1172 13.4881 20.1156 13.477C20.0822 13.238 19.9661 12.9989 20.0631 12.7599C20.1538 12.5382 19.6623 12.3151 20.1951 12.095C20.2159 12.0871 20.0774 12.0728 20.0679 12.0618C19.8612 11.8338 20.2969 11.6027 19.9184 11.3763C19.9105 11.3715 19.9757 11.3668 19.99 11.3604C20.4925 11.1484 19.4254 10.922 20.2921 10.7114C20.316 10.705 20.1968 10.6908 20.1602 10.6781C19.4509 10.455 20.6833 10.2159 19.8341 9.99267C19.8087 9.98633 19.9168 9.9705 19.9486 9.95942C20.5434 9.74253 20.2206 9.50191 20.0726 9.29769C19.9104 9.07606 20.7406 8.85126 19.9486 8.61063C19.6799 8.5299 20.0822 8.389 20.0488 8.30034C20.0059 8.18636 19.9486 8.0708 19.9295 7.95523C19.92 7.89824 19.92 7.83808 19.9359 7.78426C19.9503 7.73677 19.9804 7.69086 20.0345 7.64178C20.1426 7.54363 20.0074 7.4534 19.9359 7.36791C19.8993 7.32516 19.8803 7.28084 19.9105 7.23335C19.9375 7.18585 20.017 7.13203 20.1887 7.06237C20.2095 7.05446 20.0647 7.06079 20.044 7.05446C19.8516 6.98639 19.9407 6.88348 19.9916 6.77583C20.0488 6.66977 20.0473 6.56528 19.7084 6.55262C19.6767 6.55262 19.9073 6.47821 19.9057 6.46555C19.8914 6.37056 19.8739 6.27716 19.8532 6.18376C19.8293 6.09194 19.7912 6.00329 19.7578 5.91305C19.7547 5.90513 19.6004 5.94947 19.6115 5.93838C19.761 5.78324 19.6957 5.69934 19.6052 5.63601C19.5097 5.5711 19.4 5.52203 19.4667 5.38431C19.5272 5.25133 19.4111 5.20225 19.3093 5.15475C19.2107 5.10251 19.1519 5.03919 19.3363 4.8128C19.3427 4.80489 19.2934 4.82864 19.2663 4.83972C18.7908 5.05027 19.1376 4.73999 19.0771 4.68299C19.0135 4.61492 18.9721 4.53102 18.9308 4.44553C18.8878 4.36162 18.8513 4.26981 18.7765 4.21124C18.6159 4.07667 18.4982 3.9057 18.3503 3.76005C18.2231 3.62391 18.0148 3.59225 17.9145 3.42602C17.8701 3.34529 17.7714 3.33262 17.7285 3.23447C17.6473 3.05241 17.5074 2.90994 17.28 2.97484C17.1544 3.0065 17.0208 3.02392 16.9874 2.77379C16.9667 2.63448 16.8586 2.65822 16.76 2.66614C16.6597 2.6788 16.5659 2.68514 16.5516 2.47933C16.5501 2.46192 16.4864 2.60123 16.4768 2.59965C16.3751 2.58224 16.2701 2.57749 16.1684 2.56799C16.065 2.56482 15.968 2.54425 15.8837 2.473C15.8026 2.40968 15.6912 2.473 15.5926 2.50625C15.4925 2.53633 15.4097 2.51417 15.3541 2.23712C15.3493 2.21654 15.3191 2.34952 15.3079 2.35903C15.1998 2.44767 15.1155 2.3701 15.0201 2.33528C14.9279 2.2957 14.8277 2.2767 14.7275 2.46034C14.7243 2.46826 14.7211 2.40335 14.7163 2.3891C14.6337 2.13264 14.5334 2.26721 14.446 2.37169C14.3553 2.47142 14.2774 2.52683 14.1565 2.10098C14.1501 2.07723 14.1454 2.19597 14.1374 2.23396C14.1025 2.41126 14.0627 2.46983 14.015 2.46826C13.9688 2.47142 13.9148 2.41918 13.8592 2.37169C13.751 2.27512 13.6285 2.19597 13.6142 2.62498C13.6142 2.65031 13.5824 2.54741 13.5666 2.51733C13.4218 2.23396 13.3073 2.19913 13.2182 2.24662C13.1276 2.2957 13.0655 2.43343 13.0035 2.52367C12.9351 2.61865 12.8016 2.49834 12.6775 2.44926C12.5566 2.40018 12.4485 2.42868 12.5057 2.82761C12.5471 3.09357 12.2894 2.7817 12.2322 2.84344C12.1638 2.9226 12.105 3.016 12.0286 3.073C11.9538 3.13315 11.868 3.16798 11.7297 3.11891C11.5897 3.07141 11.5754 3.22972 11.5372 3.3342C11.5022 3.4466 11.4402 3.50359 11.1492 3.27405C11.1317 3.2598 11.208 3.3817 11.2127 3.40227C11.2494 3.60333 11.1062 3.56692 10.9933 3.58433C10.8804 3.597 10.7833 3.64449 10.9392 3.94053C10.9536 3.96744 10.7754 3.80438 10.7643 3.81229C10.7245 3.8408 10.6863 3.86929 10.6482 3.89937L10.5464 4.00068C10.4797 4.07034 10.416 4.13999 10.3508 4.21282C10.3445 4.21915 10.4606 4.32997 10.4446 4.3268C10.2268 4.26664 10.2045 4.38062 10.1902 4.48827C10.1774 4.60068 10.1838 4.71782 10.028 4.72573C9.88004 4.7384 9.91345 4.87454 9.91345 4.98062C9.91345 5.08985 9.88166 5.169 9.59221 5.11993C9.58266 5.11834 9.62877 5.15001 9.65101 5.16742C10.0725 5.4777 9.64472 5.33681 9.61608 5.4128C9.58429 5.49987 9.52863 5.57586 9.46972 5.65184C9.42199 5.73258 9.37273 5.81332 9.35049 5.90513C9.32825 6.00645 9.28681 6.10144 9.2598 6.19959C9.23278 6.29933 9.20099 6.39589 9.16443 6.49404C9.0912 6.6666 9.20099 6.86924 9.08805 7.03704C9.06266 7.07979 9.05789 7.12411 9.04987 7.17161C9.104 7.18744 9.1564 7.20801 9.20414 7.24285C9.28681 7.30142 9.40452 7.26184 9.50476 7.27134C9.6049 7.27767 9.69712 7.32042 9.71469 7.5183C9.71622 7.53255 9.76233 7.4534 9.7735 7.45181C10.0104 7.40906 10.0613 7.74785 10.3445 7.61803C10.3508 7.61487 10.3349 7.65602 10.3349 7.66553C10.3349 7.85392 10.4589 7.81434 10.5687 7.80801C10.6784 7.80009 10.7787 7.82067 10.6975 8.10879C10.6927 8.12462 10.7468 8.06447 10.7675 8.04864C10.971 7.90141 11.0061 8.02964 11.0426 8.1452C11.0808 8.25919 11.1157 8.36525 11.3575 8.19269C11.3718 8.18162 11.34 8.2481 11.3336 8.27027C11.2414 8.68978 11.515 8.63754 11.7106 8.66762C11.9221 8.70403 11.6883 9.2312 12.1845 8.97158C12.3547 8.88609 12.2545 9.15997 12.3213 9.19162C12.493 9.27553 12.6966 9.34676 12.714 9.5779C12.7221 9.81061 13.2214 9.61114 12.975 10.0592C12.9669 10.0718 13.0465 10.018 13.0624 10.0164C13.2119 10.0053 13.2198 10.1193 13.2437 10.2159C13.2659 10.314 13.3057 10.3948 13.5315 10.3299C13.5522 10.3236 13.4377 10.436 13.4441 10.447C13.549 10.5958 13.6524 10.743 13.7637 10.8855C13.7685 10.8919 13.8608 10.838 13.8575 10.8491C13.7494 11.1499 14.1565 11.0897 14.1247 11.3335C14.093 11.563 14.5382 11.4966 14.3172 11.8401C14.314 11.8464 14.3474 11.8322 14.3665 11.8259C14.6989 11.7135 14.4842 11.9304 14.5239 11.9922C14.6225 12.1409 14.6591 12.3214 14.7514 12.4749C14.8579 12.6412 14.9374 12.8216 15.0089 13.0052C15.071 13.1683 15.2173 13.2966 15.2332 13.4818C15.238 13.5673 15.2984 13.6338 15.2969 13.7287C15.2952 13.9045 15.3048 14.0818 15.4686 14.1974C15.5561 14.2638 15.6292 14.3683 15.5306 14.5345C15.4145 14.7166 15.7882 14.8179 15.5735 15.0332C15.564 15.0427 15.6674 15.0347 15.669 15.0427C15.696 15.1408 15.739 15.2358 15.7676 15.334C15.793 15.4338 15.8073 15.5382 15.7851 15.6427C15.7644 15.7392 15.8312 15.8327 15.8661 15.9309C15.8821 15.9799 15.8916 16.0274 15.8694 16.0796C15.8471 16.1335 15.7994 16.1857 15.7072 16.2316C15.6929 16.2379 15.7851 16.2553 15.7914 16.268C15.8582 16.382 15.7994 16.4881 15.7628 16.5926C15.7247 16.697 15.6881 16.7952 15.7882 16.9329C15.7914 16.9377 15.7485 16.9329 15.739 16.9361C15.5497 16.9899 15.6101 17.107 15.6387 17.229C15.6626 17.3461 15.6499 17.4648 15.3509 17.4364C15.3334 17.4347 15.4002 17.479 15.4177 17.4997C15.5847 17.6912 15.4574 17.7624 15.3366 17.8147C15.2126 17.8717 15.1155 17.9224 15.2841 18.1662C15.2936 18.182 15.2269 18.1519 15.203 18.1488C14.9819 18.1202 14.8881 18.1709 14.8341 18.258C14.7847 18.3466 14.7751 18.4732 14.7434 18.5745C14.7099 18.6885 14.5557 18.6806 14.4396 18.7012C14.3235 18.7282 14.244 18.7773 14.3092 19.0574C14.3505 19.2537 14.0818 19.1033 14.0277 19.1651C13.8798 19.3249 13.7049 19.5165 13.4488 19.4563C13.3232 19.4247 13.2532 19.5355 13.1625 19.6131C13.0751 19.6859 12.9733 19.716 12.8302 19.5039C12.8222 19.4912 12.8302 19.5862 12.8222 19.602C12.7507 19.7381 12.6361 19.689 12.5327 19.6606C12.4295 19.6305 12.3356 19.6226 12.2624 19.8473C12.2561 19.868 12.2211 19.7113 12.2084 19.7113L11.6454 19.7318C11.6374 19.7318 11.6295 19.8395 11.6231 19.83C11.4338 19.5751 11.2557 19.9376 11.0792 19.7777C10.9091 19.6226 10.7372 20.0311 10.5735 19.6654C10.5703 19.6589 10.5655 19.6954 10.5607 19.7144C10.4876 20.0547 10.4192 19.7571 10.3493 19.7619C10.1822 19.7746 10.0137 19.7128 9.84662 19.7239C9.66056 19.7366 9.47612 19.7303 9.29006 19.716C9.12624 19.7034 8.96242 19.7872 8.79697 19.7303C8.7207 19.7049 8.6428 19.7366 8.56165 19.7002C8.40901 19.6336 8.24671 19.591 8.09883 19.708C8.00662 19.7809 7.94619 19.8458 7.90008 19.7381C7.87621 19.7191 7.84757 19.6938 7.81101 19.6748C7.66465 19.5956 7.50723 19.8553 7.35773 19.6052C7.35144 19.5941 7.34189 19.697 7.33234 19.697C7.15105 19.7176 6.96966 19.7936 6.78837 19.7287C6.6214 19.6685 6.44966 19.9931 6.28584 19.6384C6.27944 19.6257 6.2699 19.716 6.26045 19.7239C6.08705 19.86 5.9137 19.5703 5.74035 19.8205C5.73717 19.8252 5.7324 19.7825 5.72763 19.773C5.5686 19.4373 5.39366 20.145 5.2378 19.5703C5.23303 19.5545 5.22189 19.6336 5.21236 19.6574C5.03742 20.126 4.86247 19.3076 4.6764 19.8663C4.67004 19.8838 4.6605 19.811 4.65096 19.7904C4.49033 19.3914 4.2963 19.5973 4.12136 19.6844C4.02594 19.7318 3.94324 19.6131 3.85578 19.545C3.76831 19.477 3.67924 19.4611 3.5393 19.7065C3.44228 19.8743 3.36276 19.5893 3.28643 19.5973C3.08445 19.6178 2.84748 19.6606 2.69958 19.4563C2.62802 19.3582 2.50237 19.3993 2.38628 19.4057C2.27178 19.412 2.16681 19.3646 2.18272 19.1113C2.1843 19.0954 2.13023 19.1762 2.11433 19.1825C1.96801 19.2395 1.90281 19.1271 1.83761 19.0337C1.7724 18.9356 1.70083 18.8706 1.48614 18.9782C1.46546 18.9878 1.54657 18.8485 1.53544 18.8374C1.45433 18.7677 1.37482 18.6965 1.29847 18.6221C1.21896 18.5509 1.1458 18.4717 1.07265 18.3941C1.06628 18.3878 0.978815 18.4496 0.9804 18.4368C1.00426 18.2691 0.923149 18.2025 0.824552 18.1392C0.733897 18.0711 0.622575 18.0078 0.636885 17.8717C0.651195 17.7403 0.541467 17.6849 0.463538 17.601C0.38243 17.5218 0.326764 17.422 0.465122 17.2606C0.469896 17.2559 0.433323 17.2622 0.41423 17.2638C0.0579992 17.2954 0.312454 17.107 0.285418 17.0295C0.221799 16.8236 0.247251 16.6068 0.212262 16.4057ZM31.2656 56.7649C31.2306 56.7697 31.1973 56.776 31.1623 56.7808C31.3579 56.871 31.334 56.8299 31.2656 56.7649ZM31.1018 56.7903C31.078 56.7935 31.0557 56.7966 31.0319 56.7998C31.1114 56.8299 31.194 56.8599 31.1018 56.7903ZM21.4149 47.6242C21.4181 47.6939 21.4244 47.7636 21.4292 47.8316C21.4722 47.8569 21.5278 47.8949 21.5994 47.9488C21.6169 47.9614 21.5199 47.8553 21.5104 47.8396C21.3339 47.5119 21.9477 47.9931 21.5708 47.4532C21.5533 47.4279 21.7267 47.5957 21.733 47.591C21.8237 47.534 21.9016 47.4643 21.9747 47.3883C21.978 47.3852 21.8746 47.2633 21.8873 47.2712C22.2245 47.4849 21.9429 47.0148 22.1831 47.124C22.4137 47.2332 22.0908 46.6997 22.525 47.0495C22.533 47.0559 22.4996 47.0115 22.4821 46.9878C22.1831 46.5699 22.5059 46.8818 22.533 46.8485C22.5982 46.7677 22.7349 46.7709 22.8001 46.6902C22.8717 46.5984 22.972 46.543 23.0721 46.4891C23.1628 46.4432 23.1659 46.2817 23.2963 46.2881C23.3568 46.2913 23.3647 46.2232 23.4363 46.2358C23.5699 46.2596 23.6828 46.2517 23.6526 46.0538C23.6335 45.9414 23.6558 45.8559 23.8371 45.9841C24.0406 46.1298 23.8354 45.6564 24.1234 45.9145C24.1361 45.9256 24.0549 45.7942 24.0582 45.791C24.1313 45.704 24.1615 45.544 24.3062 45.5647C24.4398 45.5852 24.2648 45.1102 24.6338 45.5108C24.6481 45.5266 24.5813 45.4063 24.5798 45.3953C24.5638 45.1657 24.8803 45.4855 24.7785 45.1071C24.7769 45.0992 24.812 45.153 24.8215 45.1641C25.1587 45.5488 24.7181 44.5751 25.2318 45.275C25.2461 45.294 25.1936 45.1879 25.1793 45.153C24.9249 44.4849 25.6166 45.5029 25.297 44.7113C25.2875 44.6876 25.3448 44.7779 25.3654 44.8048C25.7375 45.2813 25.6803 44.9504 25.6978 44.7762C25.7184 44.5863 26.1812 45.2796 25.9268 44.5229C25.8425 44.2649 26.0778 44.5958 26.1002 44.5483C26.1574 44.4264 26.1924 44.2411 26.3832 44.4026C26.5709 44.5673 26.3641 43.847 26.7474 44.4612C26.7585 44.4802 26.7061 44.3456 26.7045 44.3267C26.6584 43.9562 27.0575 44.6242 26.8985 43.9863C26.8922 43.9562 26.9923 44.1747 27.0003 44.1731C27.1052 44.1509 27.2022 44.1129 27.2977 44.0686C27.3025 44.067 27.2483 43.9166 27.2579 43.9277C27.4981 44.2538 27.4042 43.714 27.5887 43.9008C27.7637 44.0845 27.6539 43.4702 27.9338 43.9531C27.9386 43.961 27.9227 43.9088 27.9163 43.8802C27.7875 43.3831 27.9767 43.7884 28.0133 43.7662C28.104 43.714 28.2296 43.7647 28.3187 43.7125C28.4205 43.6602 28.5318 43.6364 28.6464 43.6254C28.7465 43.6143 28.8085 43.4654 28.9278 43.5177C28.9819 43.5414 29.0152 43.4813 29.0773 43.5193C29.1934 43.5905 29.3015 43.6206 29.3445 43.4259C29.3715 43.3071 29.3842 43.2043 29.451 43.3531C29.4733 43.3784 29.4988 43.4101 29.5258 43.4322C29.6387 43.5272 29.6435 43.1251 29.8184 43.4702C29.8264 43.4844 29.7978 43.334 29.8025 43.3309C29.9027 43.2755 29.987 43.1377 30.1158 43.2074C30.2319 43.2755 30.2414 42.7674 30.4419 43.2739C30.4498 43.2929 30.4307 43.1584 30.4338 43.1457C30.5023 42.9257 30.682 43.3372 30.7233 42.9478C30.7249 42.9399 30.7376 43.0032 30.7424 43.0159C30.9189 43.4955 30.8585 42.4286 31.0859 43.266C31.0923 43.2897 31.0811 43.171 31.0811 43.133C31.0844 42.419 31.3626 43.6158 31.3515 42.7626C31.3515 42.7373 31.3722 42.8417 31.3817 42.8733C31.5566 43.4481 31.6235 43.1204 31.7013 42.9652C31.7889 42.7958 31.9717 43.6079 32.0067 42.8117C32.0211 42.541 32.1212 42.9351 32.1594 42.8987C32.2564 42.8037 32.3566 42.6486 32.4759 42.8639C32.5904 43.0823 32.6572 42.3383 32.794 43.0475C32.7971 43.0681 32.7971 42.9257 32.8019 42.9067C32.891 42.5456 33.0246 43.3119 33.1057 42.6596C33.1089 42.6296 33.1264 42.8687 33.1343 42.8702C33.2393 42.8877 33.3442 42.8877 33.4492 42.8813C33.454 42.8813 33.4588 42.7214 33.4619 42.7356C33.5701 43.1204 33.675 42.579 33.7816 42.8196C33.8802 43.0523 33.9979 42.4396 34.0853 42.989C34.087 42.9984 34.0917 42.943 34.0949 42.9145C34.1537 42.4032 34.1839 42.8512 34.2253 42.8449C34.3287 42.8307 34.4273 42.9257 34.5291 42.9098C34.6435 42.8923 34.7564 42.9082 34.8678 42.9383C34.9664 42.9636 35.0762 42.8449 35.17 42.9351C35.2129 42.9763 35.2654 42.9335 35.3083 42.9905C35.391 43.0997 35.4817 43.171 35.5914 43.0032C35.6518 42.9113 35.7266 42.8528 35.7759 43.0713C35.83 43.315 35.9954 42.8243 36.0351 43.2074C36.0368 43.2233 36.0638 43.0728 36.0701 43.0713C36.183 43.0538 36.3119 42.9541 36.4056 43.0697C36.4899 43.1742 36.6792 42.7103 36.6855 43.2501C36.6855 43.2707 36.7158 43.1362 36.7237 43.1267C36.8669 42.9414 36.8875 43.3911 37.0657 43.0412C37.0688 43.0349 37.0593 43.0982 37.0593 43.1124C37.053 43.6222 37.379 42.6026 37.2899 43.4671C37.2868 43.4907 37.3201 43.3768 37.3329 43.342C37.5921 42.6771 37.422 43.8976 37.7161 43.0982C37.7256 43.0744 37.7066 43.1805 37.705 43.2121C37.6621 43.809 37.8433 43.5241 37.9738 43.4069C38.117 43.2787 37.996 44.1018 38.3141 43.3689C38.4239 43.1219 38.3761 43.5256 38.4254 43.5066C38.5495 43.4544 38.699 43.3467 38.7324 43.5905C38.7626 43.8343 39.0918 43.1615 38.9646 43.8723C38.9613 43.8929 39.0122 43.7599 39.0234 43.7441C39.2365 43.4385 39.087 44.1968 39.3971 43.619C39.4115 43.5921 39.3415 43.8217 39.3479 43.8264C39.4401 43.8818 39.5371 43.9198 39.6372 43.9531C39.642 43.9546 39.7041 43.8074 39.7024 43.8217C39.6644 44.2206 39.957 43.7568 39.9697 44.0164C39.9776 44.2681 40.3085 43.7378 40.1923 44.2823C40.1908 44.2918 40.2146 44.2428 40.2273 44.2175C40.4659 43.7631 40.3339 44.1905 40.3752 44.2C40.4213 44.2095 40.4579 44.2411 40.4929 44.2728C40.5947 44.1367 40.7346 44.0227 40.9398 43.9514C40.9684 43.942 40.8682 43.8407 40.8762 43.8058C40.9541 43.4734 41.1815 43.2248 41.4042 42.9826C41.5123 42.8591 41.6205 42.7373 41.7111 42.6011C41.7986 42.4618 41.8669 42.3098 41.9035 42.1245C41.9068 42.1103 41.9656 42.1389 41.9878 42.1356C42.1819 42.1024 42.3028 42.0074 42.3997 41.8871C42.4952 41.7652 42.5572 41.6085 42.6399 41.4691C42.721 41.3283 42.8084 41.189 42.9452 41.1082C43.082 41.0275 43.2633 40.999 43.513 41.0687C43.5416 41.0766 43.4986 40.9595 43.5019 40.9104C43.5146 40.6761 43.61 40.5272 43.7451 40.4323C43.8819 40.3389 44.0537 40.2898 44.2208 40.2439C44.3925 40.2011 44.5578 40.1568 44.6867 40.057C44.8186 39.9605 44.9156 39.8133 44.9538 39.5473C44.9586 39.5156 45.0477 39.5869 45.0938 39.5996C45.3037 39.6581 45.485 39.6676 45.6488 39.6423C45.8143 39.6186 45.9638 39.5663 46.1021 39.4903C46.382 39.3447 46.6316 39.1199 46.8845 38.9615C47.0213 38.8713 47.1804 38.8429 47.3474 38.8429C47.5127 38.8412 47.6829 38.8555 47.8499 38.865C48.1839 38.8729 48.4909 38.827 48.7723 38.3838C48.8694 38.2365 49.0363 38.2476 49.2049 38.2904C49.3734 38.3347 49.5437 38.417 49.6693 38.3901C49.83 38.3537 49.9937 38.3268 50.1575 38.3015L50.4056 38.265C50.4804 38.2555 50.5551 38.2491 50.6299 38.2445C50.9272 38.2255 51.2231 38.2445 51.5125 38.3568C52.0914 38.5816 52.6719 37.8391 53.2348 38.5532C53.2524 38.5737 53.2873 38.4312 53.3176 38.4122C53.3542 38.3901 53.3891 38.3711 53.4257 38.3584C53.4432 38.3521 53.4623 38.3458 53.4798 38.3395L53.5195 38.3236C53.5689 38.3061 53.6181 38.3015 53.669 38.3046C53.7724 38.3188 53.8679 38.3315 53.9744 38.3521C54.0793 38.3695 54.1796 38.3537 54.267 38.3078C54.3465 38.2413 54.4134 38.1478 54.4117 37.9579C54.4101 37.9247 54.5533 38.1194 54.5803 38.1067C54.7585 38.0244 54.9207 37.8961 55.0812 37.7553C55.234 37.6017 55.385 37.437 55.5154 37.2376C55.5281 37.2186 55.4105 37.1093 55.4311 37.103C55.5123 37.084 55.5743 37.046 55.6284 37.0017C55.2451 36.8497 55.6491 36.9019 55.6538 36.8529C55.6665 36.7263 55.7874 36.6297 55.8001 36.503C55.8144 36.3637 55.859 36.2323 55.9147 36.1026C55.9639 35.9885 55.8717 35.8382 55.9846 35.74C56.037 35.6957 56.0037 35.626 56.0721 35.5801C56.1977 35.4962 56.3313 35.4171 56.1898 35.2619L56.3551 35.3078C56.3631 35.2239 56.3695 35.1385 56.3774 35.045C56.4045 34.7553 56.4697 34.4783 56.8132 34.2851C56.8244 34.2788 56.7766 34.2456 56.7528 34.225C56.3265 33.8513 56.8244 33.7469 56.8815 33.519C57.02 32.9696 57.2632 32.4519 57.3952 31.9042C57.54 31.2979 57.7102 30.6994 57.8803 30.1042C58.0282 29.5771 58.0314 29.0214 58.2223 28.5084C58.3113 28.2709 58.3129 28.0113 58.4115 27.7581C58.6008 27.2847 58.7391 26.7623 58.6166 26.2652C58.5832 26.1275 58.5594 25.9707 58.5722 25.8013C58.5784 25.7174 58.5975 25.6257 58.6246 25.5386C58.65 25.4531 58.6914 25.366 58.7487 25.2727C58.8855 25.0636 58.8012 24.8278 58.7518 24.5966C58.6818 24.3656 58.6436 24.1392 58.7931 23.8858C58.8059 23.8637 58.65 23.8541 58.6453 23.8305C58.5371 23.2906 58.3002 22.7967 58.2142 22.2569C58.1905 22.1318 58.1332 22.0178 58.0664 21.9086C57.9949 21.8009 57.9089 21.7012 57.839 21.5951C57.7721 21.4875 57.7006 21.3845 57.6735 21.2579C57.6592 21.1946 57.6529 21.1281 57.6577 21.0537C57.6592 20.9808 57.672 20.9017 57.6974 20.8147C57.7054 20.7878 57.5702 20.8289 57.5479 20.8114C57.4922 20.7671 57.4477 20.7197 57.4064 20.6675C57.3634 20.6168 57.3269 20.5629 57.2935 20.5075C57.2266 20.3951 57.1789 20.2701 57.1122 20.1545C57.0485 20.039 56.9849 19.9202 56.8896 19.8268C56.7941 19.7334 56.6764 19.6574 56.5237 19.6178C56.5126 19.6146 56.5524 19.564 56.554 19.545C56.5682 19.3725 56.5046 19.26 56.4076 19.1746C56.3122 19.0906 56.1755 19.0432 56.0546 18.9862C55.9338 18.9276 55.8176 18.8706 55.7461 18.7646C55.6745 18.6601 55.6506 18.5018 55.6952 18.2612C55.7 18.2342 55.5949 18.3007 55.5505 18.3118C55.1258 18.4115 55.0033 18.1582 54.8507 17.9049C54.7728 17.7831 54.69 17.6628 54.5708 17.5994C54.4499 17.5377 54.2893 17.5377 54.0714 17.6517C54.0444 17.6659 54.0714 17.5551 54.065 17.5124C53.9983 17.134 53.7884 16.9329 53.5338 16.8411C53.2826 16.7382 52.9883 16.7461 52.7435 16.7208C52.6067 16.7113 52.4937 16.6463 52.3856 16.5593C52.2775 16.4723 52.1693 16.3756 52.0548 16.2902C51.9403 16.2031 51.8131 16.1446 51.67 16.1414C51.5269 16.1382 51.3662 16.1936 51.1849 16.3566C51.0624 16.4675 50.9495 16.4042 50.8334 16.3171C50.7189 16.2332 50.6028 16.1192 50.4978 16.1176C49.9556 16.1192 49.4228 16.2237 48.9075 15.9957C48.6451 15.8896 48.3827 16.0211 48.1346 16.1145C48.0089 16.1572 47.8849 16.1857 47.756 16.1715C47.6256 16.1556 47.4889 16.078 47.3347 15.9261C47.3156 15.9086 47.3075 16.0543 47.2838 16.078C47.1708 16.1905 47.0484 16.2269 46.918 16.2442C46.7892 16.2617 46.6524 16.2506 46.5156 16.2474C46.2468 16.2522 45.9717 16.2933 45.8397 16.686C45.8286 16.7208 45.703 16.5103 45.6663 16.5197C45.1622 16.678 44.6739 16.8917 44.2112 17.1482C44.1905 17.1609 44.243 17.3144 44.2191 17.3113C44.0585 17.2939 43.9185 17.3207 43.8024 17.3873C43.6863 17.4521 43.5862 17.5456 43.4891 17.639C43.3969 17.7403 43.3078 17.8432 43.2077 17.9287C43.1059 18.0141 43.0009 18.0901 42.8578 18.1234C42.7178 18.1551 42.6176 18.239 42.5318 18.3355C42.4442 18.4321 42.3711 18.5445 42.2996 18.6553C42.1469 18.8706 41.9911 19.0622 41.6109 19.0638C41.5982 19.0638 41.6284 19.1128 41.6412 19.1413C41.8845 19.6447 41.4058 19.5054 41.2801 19.6859C40.9796 20.0991 40.6121 20.4743 40.38 20.9365C40.1223 21.4447 39.8822 21.9593 39.6771 22.4911C39.5816 22.7254 39.5435 22.9771 39.4926 23.2225C39.4544 23.4727 39.4035 23.7165 39.324 23.9587C39.2397 24.1803 39.2651 24.4272 39.1793 24.6695C39.1141 24.9006 39.0456 25.1365 39.0409 25.3945C39.0377 25.4578 39.0377 25.5212 39.0393 25.5845L39.0441 25.6795L39.0456 25.746L39.0489 25.7966C39.06 25.9248 39.0854 26.0547 39.1252 26.1798C39.2238 26.4931 39.3145 26.6942 39.149 26.8494C39.1172 26.9301 39.0775 27.0267 39.0456 27.1439C38.9137 27.633 39.2921 28.165 38.9105 28.6684C38.8946 28.6905 39.0473 28.7237 39.0489 28.7523C39.0743 29.3601 39.1888 29.9649 39.1029 30.5633C39.0616 30.842 39.1713 31.1158 39.2269 31.3865C39.2858 31.6557 39.289 31.9184 39.0489 32.2002C39.0313 32.2224 39.1698 32.2397 39.1824 32.2667C39.4449 32.7828 39.0998 33.4271 39.5546 33.959C39.5641 33.9701 39.5021 33.9939 39.4894 34.0096C39.2779 34.3168 39.456 34.5812 39.5864 34.8566C39.7168 35.1305 39.8011 35.4202 39.3971 35.7415C39.3749 35.759 39.4973 35.7875 39.5371 35.816C39.9171 36.0819 39.8106 36.4176 39.7105 36.7436C39.6102 37.0761 39.5164 37.3817 39.9204 37.7474C39.9443 37.771 39.833 37.8107 39.7979 37.8455C39.4719 38.1622 39.3621 38.4851 39.246 38.8903C39.1745 39.0977 39.1172 39.3241 38.9518 39.5774C38.7944 39.826 38.5256 40.0777 38.2107 40.2059C37.9737 40.3135 37.7623 40.3214 37.5667 40.2945C37.3694 40.2676 37.1913 40.2059 37.0212 40.1568C36.6776 40.0587 36.3675 40.0159 35.9635 40.3531C35.6821 40.581 35.3592 40.1093 35.1143 40.0856C34.793 40.0539 34.4638 40.0254 34.1458 39.9494C33.9883 39.9098 33.8324 39.8607 33.6846 39.7911C33.648 39.7737 33.6098 39.7563 33.5764 39.7373C33.5446 39.7199 33.5144 39.7009 33.4842 39.6819C33.4237 39.6423 33.3649 39.5979 33.3077 39.5489C33.0803 39.351 32.7717 39.3874 32.4887 39.37C32.204 39.3525 31.9447 39.2845 31.7809 38.8682C31.7713 38.8429 31.6998 38.9711 31.6664 38.9822C31.0509 39.1848 30.6867 38.3109 30.0092 38.846C29.9791 38.8713 29.9743 38.6259 29.9345 38.6165C29.3906 38.4977 28.8737 38.4249 28.3775 38.4297C28.3536 38.4297 28.3283 38.5895 28.3108 38.5753C27.7986 38.1906 27.3008 38.8064 26.7649 38.6718C26.528 38.6038 26.3307 38.7652 26.1447 38.9014C25.9538 39.0392 25.7661 39.1516 25.4147 39.036C25.4019 39.0328 25.4163 39.0882 25.421 39.1183C25.4608 39.3905 25.3876 39.4571 25.2748 39.4729C25.1635 39.4903 25.014 39.4571 24.9312 39.5219C24.5289 39.8275 24.0501 40.103 23.6892 40.467C23.2884 40.8739 22.9083 41.2824 22.5806 41.7225C22.2865 42.1166 22.1736 42.59 21.9207 42.9984C21.803 43.19 21.776 43.4211 21.6615 43.6364C21.4452 44.0402 21.2988 44.534 21.4468 44.9931C21.5342 45.2528 21.5835 45.5392 21.3783 45.9857C21.143 46.4622 21.6535 47.0115 21.2782 47.5276C21.2591 47.5641 21.4134 47.5973 21.4149 47.6242ZM7.99067 18.9055C10.2633 18.9055 14.5589 18.649 14.5589 17.6818C14.5589 16.7144 10.2617 16.458 7.99067 16.458C5.71968 16.458 1.42252 16.7144 1.42252 17.6818C1.42094 18.649 5.71809 18.9055 7.99067 18.9055Z" fill="black"/>
</svg>
